<svg width="17" height="7" viewBox="0 0 17 7" fill="none" xmlns="http://www.w3.org/2000/svg">
<path d="M0.552734 3.49807C0.552734 2.81323 0.64151 2.18365 0.81906 1.60933C0.998422 1.0332 1.25388 0.503265 1.58543 0.0195312H2.15069C2.02024 0.198894 1.89795 0.419926 1.78381 0.682628C1.67148 0.943518 1.57274 1.23068 1.48759 1.54411C1.40244 1.85573 1.33541 2.17822 1.28649 2.51158C1.23938 2.84494 1.21583 3.17377 1.21583 3.49807C1.21583 3.92926 1.2575 4.3668 1.34084 4.81067C1.42418 5.25455 1.53651 5.66672 1.67782 6.04718C1.81914 6.42765 1.97676 6.73746 2.15069 6.97661H1.58543C1.25388 6.49287 0.998422 5.96384 0.81906 5.38952C0.64151 4.81339 0.552734 4.18291 0.552734 3.49807Z" fill="#9B9B9B"/>
<path d="M5.0429 0.715239V6.2809H4.36893V1.42182H4.33632L2.97752 2.32406V1.63923L4.36893 0.715239H5.0429Z" fill="#9B9B9B"/>
<path d="M6.8175 6.2809L9.30683 1.35659V1.31311H6.43703V0.715239H10.0025V1.34572L7.52408 6.2809H6.8175Z" fill="#9B9B9B"/>
<path d="M12.6862 6.35699C12.313 6.35699 11.9832 6.29086 11.697 6.15861C11.4125 6.02454 11.1906 5.84065 11.0311 5.60693C10.8717 5.37141 10.7929 5.10327 10.7947 4.80252C10.7929 4.56699 10.8391 4.34959 10.9333 4.15029C11.0275 3.94919 11.1562 3.78161 11.3192 3.64754C11.4841 3.51166 11.668 3.4256 11.8709 3.38936V3.35675C11.6046 3.28791 11.3926 3.13844 11.235 2.90835C11.0773 2.67645 10.9994 2.41284 11.0013 2.11752C10.9994 1.83489 11.071 1.58216 11.2159 1.35931C11.3609 1.13647 11.5602 0.960729 11.8138 0.832096C12.0693 0.703463 12.3601 0.639146 12.6862 0.639146C13.0087 0.639146 13.2967 0.703463 13.5504 0.832096C13.804 0.960729 14.0033 1.13647 14.1482 1.35931C14.295 1.58216 14.3693 1.83489 14.3711 2.11752C14.3693 2.41284 14.2887 2.67645 14.1292 2.90835C13.9716 3.13844 13.7623 3.28791 13.5015 3.35675V3.38936C13.7026 3.4256 13.8837 3.51166 14.045 3.64754C14.2062 3.78161 14.3349 3.94919 14.4309 4.15029C14.5269 4.34959 14.5758 4.56699 14.5776 4.80252C14.5758 5.10327 14.4943 5.37141 14.333 5.60693C14.1736 5.84065 13.9517 6.02454 13.6672 6.15861C13.3846 6.29086 13.0576 6.35699 12.6862 6.35699ZM12.6862 5.75912C12.938 5.75912 13.1554 5.71835 13.3384 5.63683C13.5214 5.5553 13.6627 5.44025 13.7623 5.29169C13.862 5.14313 13.9127 4.9692 13.9145 4.76991C13.9127 4.55975 13.8584 4.37404 13.7515 4.2128C13.6446 4.05155 13.4987 3.92473 13.3139 3.83233C13.131 3.73994 12.9217 3.69374 12.6862 3.69374C12.4488 3.69374 12.2369 3.73994 12.0502 3.83233C11.8655 3.92473 11.7196 4.05155 11.6127 4.2128C11.5076 4.37404 11.456 4.55975 11.4578 4.76991C11.456 4.9692 11.504 5.14313 11.6018 5.29169C11.7015 5.44025 11.8437 5.5553 12.0285 5.63683C12.2133 5.71835 12.4325 5.75912 12.6862 5.75912ZM12.6862 3.1176C12.8855 3.1176 13.0621 3.07775 13.2161 2.99803C13.3719 2.91831 13.4942 2.80689 13.583 2.66376C13.6718 2.52064 13.717 2.35305 13.7189 2.16101C13.717 1.97258 13.6727 1.80862 13.5857 1.66912C13.4987 1.5278 13.3783 1.4191 13.2243 1.34301C13.0703 1.2651 12.8909 1.22615 12.6862 1.22615C12.4778 1.22615 12.2957 1.2651 12.1399 1.34301C11.9841 1.4191 11.8636 1.5278 11.7785 1.66912C11.6933 1.80862 11.6517 1.97258 11.6535 2.16101C11.6517 2.35305 11.6942 2.52064 11.7812 2.66376C11.87 2.80689 11.9923 2.91831 12.1481 2.99803C12.3039 3.07775 12.4833 3.1176 12.6862 3.1176Z" fill="#9B9B9B"/>
<path d="M16.9997 3.49807C16.9997 4.18291 16.91 4.81339 16.7306 5.38952C16.5531 5.96384 16.2985 6.49287 15.967 6.97661H15.4017C15.5322 6.79724 15.6536 6.57621 15.7659 6.31351C15.88 6.05262 15.9797 5.76636 16.0648 5.45475C16.15 5.14131 16.2161 4.81792 16.2632 4.48456C16.3121 4.14939 16.3366 3.82056 16.3366 3.49807C16.3366 3.06687 16.2949 2.62934 16.2116 2.18546C16.1282 1.74159 16.0159 1.32942 15.8746 0.948953C15.7333 0.568488 15.5757 0.258681 15.4017 0.0195312H15.967C16.2985 0.503265 16.5531 1.0332 16.7306 1.60933C16.91 2.18365 16.9997 2.81323 16.9997 3.49807Z" fill="#9B9B9B"/>
</svg>
