<svg width="17" height="8" viewBox="0 0 17 8" fill="none" xmlns="http://www.w3.org/2000/svg">
<path d="M0.552734 3.69729C0.552734 3.01245 0.64151 2.38287 0.81906 1.80855C0.998422 1.23242 1.25388 0.702484 1.58543 0.21875H2.15069C2.02024 0.398112 1.89795 0.619144 1.78381 0.881846C1.67148 1.14274 1.57274 1.4299 1.48759 1.74333C1.40244 2.05495 1.33541 2.37744 1.28649 2.7108C1.23938 3.04416 1.21583 3.37299 1.21583 3.69729C1.21583 4.12848 1.2575 4.56602 1.34084 5.00989C1.42418 5.45377 1.53651 5.86594 1.67782 6.2464C1.81914 6.62687 1.97676 6.93668 2.15069 7.17582H1.58543C1.25388 6.69209 0.998422 6.16306 0.81906 5.58874C0.64151 5.01261 0.552734 4.38212 0.552734 3.69729Z" fill="#9B9B9B"/>
<path d="M5.0429 0.914458V6.48012H4.36893V1.62104H4.33632L2.97752 2.52328V1.83844L4.36893 0.914458H5.0429Z" fill="#9B9B9B"/>
<path d="M6.8175 6.48012L9.30683 1.55581V1.51233H6.43703V0.914458H10.0025V1.54494L7.52408 6.48012H6.8175Z" fill="#9B9B9B"/>
<path d="M12.6862 6.55621C12.313 6.55621 11.9832 6.49008 11.697 6.35782C11.4125 6.22376 11.1906 6.03986 11.0311 5.80615C10.8717 5.57062 10.7929 5.30249 10.7947 5.00174C10.7929 4.76621 10.8391 4.5488 10.9333 4.34951C11.0275 4.14841 11.1562 3.98082 11.3192 3.84676C11.4841 3.71088 11.668 3.62482 11.8709 3.58858V3.55597C11.6046 3.48713 11.3926 3.33766 11.235 3.10757C11.0773 2.87566 10.9994 2.61206 11.0013 2.31674C10.9994 2.03411 11.071 1.78137 11.2159 1.55853C11.3609 1.33569 11.5602 1.15995 11.8138 1.03131C12.0693 0.902681 12.3601 0.838365 12.6862 0.838365C13.0087 0.838365 13.2967 0.902681 13.5504 1.03131C13.804 1.15995 14.0033 1.33569 14.1482 1.55853C14.295 1.78137 14.3693 2.03411 14.3711 2.31674C14.3693 2.61206 14.2887 2.87566 14.1292 3.10757C13.9716 3.33766 13.7623 3.48713 13.5015 3.55597V3.58858C13.7026 3.62482 13.8837 3.71088 14.045 3.84676C14.2062 3.98082 14.3349 4.14841 14.4309 4.34951C14.5269 4.5488 14.5758 4.76621 14.5776 5.00174C14.5758 5.30249 14.4943 5.57062 14.333 5.80615C14.1736 6.03986 13.9517 6.22376 13.6672 6.35782C13.3846 6.49008 13.0576 6.55621 12.6862 6.55621ZM12.6862 5.95834C12.938 5.95834 13.1554 5.91757 13.3384 5.83604C13.5214 5.75452 13.6627 5.63947 13.7623 5.49091C13.862 5.34235 13.9127 5.16842 13.9145 4.96913C13.9127 4.75897 13.8584 4.57326 13.7515 4.41202C13.6446 4.25077 13.4987 4.12395 13.3139 4.03155C13.131 3.93915 12.9217 3.89296 12.6862 3.89296C12.4488 3.89296 12.2369 3.93915 12.0502 4.03155C11.8655 4.12395 11.7196 4.25077 11.6127 4.41202C11.5076 4.57326 11.456 4.75897 11.4578 4.96913C11.456 5.16842 11.504 5.34235 11.6018 5.49091C11.7015 5.63947 11.8437 5.75452 12.0285 5.83604C12.2133 5.91757 12.4325 5.95834 12.6862 5.95834ZM12.6862 3.31682C12.8855 3.31682 13.0621 3.27696 13.2161 3.19725C13.3719 3.11753 13.4942 3.00611 13.583 2.86298C13.6718 2.71985 13.717 2.55227 13.7189 2.36022C13.717 2.1718 13.6727 2.00784 13.5857 1.86834C13.4987 1.72702 13.3783 1.61832 13.2243 1.54222C13.0703 1.46432 12.8909 1.42537 12.6862 1.42537C12.4778 1.42537 12.2957 1.46432 12.1399 1.54222C11.9841 1.61832 11.8636 1.72702 11.7785 1.86834C11.6933 2.00784 11.6517 2.1718 11.6535 2.36022C11.6517 2.55227 11.6942 2.71985 11.7812 2.86298C11.87 3.00611 11.9923 3.11753 12.1481 3.19725C12.3039 3.27696 12.4833 3.31682 12.6862 3.31682Z" fill="#9B9B9B"/>
<path d="M16.9997 3.69729C16.9997 4.38212 16.91 5.01261 16.7306 5.58874C16.5531 6.16306 16.2985 6.69209 15.967 7.17582H15.4017C15.5322 6.99646 15.6536 6.77543 15.7659 6.51273C15.88 6.25184 15.9797 5.96558 16.0648 5.65396C16.15 5.34053 16.2161 5.01714 16.2632 4.68378C16.3121 4.34861 16.3366 4.01978 16.3366 3.69729C16.3366 3.26609 16.2949 2.82856 16.2116 2.38468C16.1282 1.94081 16.0159 1.52864 15.8746 1.14817C15.7333 0.767707 15.5757 0.4579 15.4017 0.21875H15.967C16.2985 0.702484 16.5531 1.23242 16.7306 1.80855C16.91 2.38287 16.9997 3.01245 16.9997 3.69729Z" fill="#9B9B9B"/>
</svg>
