<svg width="19" height="21" viewBox="0 0 19 21" fill="none" xmlns="http://www.w3.org/2000/svg">
<path fill-rule="evenodd" clip-rule="evenodd" d="M2.4074 0.199219H5.59146C6.91972 0.199219 7.98421 1.34922 7.98421 2.76022V6.16922C7.98421 7.58922 6.91972 8.72922 5.59146 8.72922H2.4074C1.08856 8.72922 0.0146484 7.58922 0.0146484 6.16922V2.76022C0.0146484 1.34922 1.08856 0.199219 2.4074 0.199219ZM2.4074 11.6689H5.59146C6.91972 11.6689 7.98421 12.8099 7.98421 14.2299V17.6389C7.98421 19.0489 6.91972 20.1989 5.59146 20.1989H2.4074C1.08856 20.1989 0.0146484 19.0489 0.0146484 17.6389V14.2299C0.0146484 12.8099 1.08856 11.6689 2.4074 11.6689ZM16.4626 0.199219H13.2785C11.9503 0.199219 10.8858 1.34922 10.8858 2.76022V6.16922C10.8858 7.58922 11.9503 8.72922 13.2785 8.72922H16.4626C17.7814 8.72922 18.8553 7.58922 18.8553 6.16922V2.76022C18.8553 1.34922 17.7814 0.199219 16.4626 0.199219ZM13.2785 11.6689H16.4626C17.7814 11.6689 18.8553 12.8099 18.8553 14.2299V17.6389C18.8553 19.0489 17.7814 20.1989 16.4626 20.1989H13.2785C11.9503 20.1989 10.8858 19.0489 10.8858 17.6389V14.2299C10.8858 12.8099 11.9503 11.6689 13.2785 11.6689Z" fill="#CFD1DE"/>
</svg>
