<svg width="21" height="13" viewBox="0 0 21 13" fill="none" xmlns="http://www.w3.org/2000/svg">
<path fill-rule="evenodd" clip-rule="evenodd" d="M18.8723 0.5H17.7056C17.0613 0.5 16.5389 1.00368 16.5389 1.625V11.375C16.5389 11.9963 17.0613 12.5 17.7056 12.5H18.8723C19.5166 12.5 20.0389 11.9963 20.0389 11.375V1.625C20.0389 1.00368 19.5166 0.5 18.8723 0.5ZM12.2154 3.12513H13.3821C14.0264 3.12513 14.5488 3.62881 14.5488 4.25013V11.3751C14.5488 11.9965 14.0264 12.5001 13.3821 12.5001H12.2154C11.5711 12.5001 11.0488 11.9965 11.0488 11.3751V4.25013C11.0488 3.62881 11.5711 3.12513 12.2154 3.12513ZM7.89189 5.74992H6.72522C6.08089 5.74992 5.55856 6.2536 5.55856 6.87492V11.3749C5.55856 11.9962 6.08089 12.4999 6.72522 12.4999H7.89189C8.53622 12.4999 9.05856 11.9962 9.05856 11.3749V6.87492C9.05856 6.2536 8.53622 5.74992 7.89189 5.74992ZM2.40169 7.99989H1.23503C0.590694 7.99989 0.0683594 8.50356 0.0683594 9.12489V11.3749C0.0683594 11.9962 0.590694 12.4999 1.23503 12.4999H2.40169C3.04602 12.4999 3.56836 11.9962 3.56836 11.3749V9.12489C3.56836 8.50356 3.04602 7.99989 2.40169 7.99989Z" fill="black"/>
</svg>
