<svg width="21" height="13" viewBox="0 0 21 13" fill="none" xmlns="http://www.w3.org/2000/svg">
<path fill-rule="evenodd" clip-rule="evenodd" d="M19.5588 0.5H18.3921C17.7478 0.5 17.2255 1.00368 17.2255 1.625V11.375C17.2255 11.9963 17.7478 12.5 18.3921 12.5H19.5588C20.2031 12.5 20.7255 11.9963 20.7255 11.375V1.625C20.7255 1.00368 20.2031 0.5 19.5588 0.5ZM12.9019 3.12513H14.0686C14.7129 3.12513 15.2353 3.62881 15.2353 4.25013V11.3751C15.2353 11.9965 14.7129 12.5001 14.0686 12.5001H12.9019C12.2576 12.5001 11.7353 11.9965 11.7353 11.3751V4.25013C11.7353 3.62881 12.2576 3.12513 12.9019 3.12513ZM8.57841 5.74992H7.41175C6.76741 5.74992 6.24508 6.2536 6.24508 6.87492V11.3749C6.24508 11.9962 6.76741 12.4999 7.41175 12.4999H8.57841C9.22274 12.4999 9.74508 11.9962 9.74508 11.3749V6.87492C9.74508 6.2536 9.22274 5.74992 8.57841 5.74992ZM3.08822 7.99989H1.92155C1.27722 7.99989 0.754883 8.50356 0.754883 9.12489V11.3749C0.754883 11.9962 1.27722 12.4999 1.92155 12.4999H3.08822C3.73255 12.4999 4.25488 11.9962 4.25488 11.3749V9.12489C4.25488 8.50356 3.73255 7.99989 3.08822 7.99989Z" fill="black"/>
</svg>
