<svg width="21" height="13" viewBox="0 0 21 13" fill="none" xmlns="http://www.w3.org/2000/svg">
<path fill-rule="evenodd" clip-rule="evenodd" d="M19.3137 0.5H18.147C17.5027 0.5 16.9804 1.00368 16.9804 1.625V11.375C16.9804 11.9963 17.5027 12.5 18.147 12.5H19.3137C19.958 12.5 20.4804 11.9963 20.4804 11.375V1.625C20.4804 1.00368 19.958 0.5 19.3137 0.5ZM12.6568 3.12513H13.8235C14.4678 3.12513 14.9902 3.62881 14.9902 4.25013V11.3751C14.9902 11.9965 14.4678 12.5001 13.8235 12.5001H12.6568C12.0125 12.5001 11.4902 11.9965 11.4902 11.3751V4.25013C11.4902 3.62881 12.0125 3.12513 12.6568 3.12513ZM8.33329 5.74992H7.16663C6.5223 5.74992 5.99996 6.2536 5.99996 6.87492V11.3749C5.99996 11.9962 6.5223 12.4999 7.16663 12.4999H8.33329C8.97763 12.4999 9.49996 11.9962 9.49996 11.3749V6.87492C9.49996 6.2536 8.97763 5.74992 8.33329 5.74992ZM2.8431 7.99989H1.67643C1.0321 7.99989 0.509766 8.50356 0.509766 9.12489V11.3749C0.509766 11.9962 1.0321 12.4999 1.67643 12.4999H2.8431C3.48743 12.4999 4.00977 11.9962 4.00977 11.3749V9.12489C4.00977 8.50356 3.48743 7.99989 2.8431 7.99989Z" fill="black"/>
</svg>
