<svg width="21" height="13" viewBox="0 0 21 13" fill="none" xmlns="http://www.w3.org/2000/svg">
<path fill-rule="evenodd" clip-rule="evenodd" d="M18.9348 0.386719H17.7681C17.1238 0.386719 16.6014 0.890398 16.6014 1.51172V11.2617C16.6014 11.883 17.1238 12.3867 17.7681 12.3867H18.9348C19.5791 12.3867 20.1014 11.883 20.1014 11.2617V1.51172C20.1014 0.890398 19.5791 0.386719 18.9348 0.386719ZM12.2779 3.01185H13.4446C14.0889 3.01185 14.6113 3.51553 14.6113 4.13685V11.2619C14.6113 11.8832 14.0889 12.3869 13.4446 12.3869H12.2779C11.6336 12.3869 11.1113 11.8832 11.1113 11.2619V4.13685C11.1113 3.51553 11.6336 3.01185 12.2779 3.01185ZM7.95439 5.63664H6.78772C6.14339 5.63664 5.62106 6.14032 5.62106 6.76164V11.2616C5.62106 11.883 6.14339 12.3866 6.78772 12.3866H7.95439C8.59872 12.3866 9.12106 11.883 9.12106 11.2616V6.76164C9.12106 6.14032 8.59872 5.63664 7.95439 5.63664ZM2.46419 7.8866H1.29753C0.653194 7.8866 0.130859 8.39028 0.130859 9.0116V11.2616C0.130859 11.8829 0.653194 12.3866 1.29753 12.3866H2.46419C3.10852 12.3866 3.63086 11.8829 3.63086 11.2616V9.0116C3.63086 8.39028 3.10852 7.8866 2.46419 7.8866Z" fill="white"/>
</svg>
