<svg width="21" height="13" viewBox="0 0 21 13" fill="none" xmlns="http://www.w3.org/2000/svg">
<path fill-rule="evenodd" clip-rule="evenodd" d="M19.6985 0.5H18.5318C17.8875 0.5 17.3651 1.00368 17.3651 1.625V11.375C17.3651 11.9963 17.8875 12.5 18.5318 12.5H19.6985C20.3428 12.5 20.8651 11.9963 20.8651 11.375V1.625C20.8651 1.00368 20.3428 0.5 19.6985 0.5ZM13.0416 3.12513H14.2083C14.8526 3.12513 15.3749 3.62881 15.3749 4.25013V11.3751C15.3749 11.9965 14.8526 12.5001 14.2083 12.5001H13.0416C12.3973 12.5001 11.8749 11.9965 11.8749 11.3751V4.25013C11.8749 3.62881 12.3973 3.12513 13.0416 3.12513ZM8.71806 5.74992H7.55139C6.90706 5.74992 6.38473 6.2536 6.38473 6.87492V11.3749C6.38473 11.9962 6.90706 12.4999 7.55139 12.4999H8.71806C9.36239 12.4999 9.88473 11.9962 9.88473 11.3749V6.87492C9.88473 6.2536 9.36239 5.74992 8.71806 5.74992ZM3.22786 7.99989H2.0612C1.41687 7.99989 0.894531 8.50356 0.894531 9.12489V11.3749C0.894531 11.9962 1.41687 12.4999 2.0612 12.4999H3.22786C3.8722 12.4999 4.39453 11.9962 4.39453 11.3749V9.12489C4.39453 8.50356 3.8722 7.99989 3.22786 7.99989Z" fill="black"/>
</svg>
