<svg width="21" height="13" viewBox="0 0 21 13" fill="none" xmlns="http://www.w3.org/2000/svg">
<path fill-rule="evenodd" clip-rule="evenodd" d="M19.593 0.5H18.4263C17.782 0.5 17.2596 1.00368 17.2596 1.625V11.375C17.2596 11.9963 17.782 12.5 18.4263 12.5H19.593C20.2373 12.5 20.7596 11.9963 20.7596 11.375V1.625C20.7596 1.00368 20.2373 0.5 19.593 0.5ZM12.9361 3.12513H14.1028C14.7471 3.12513 15.2695 3.62881 15.2695 4.25013V11.3751C15.2695 11.9965 14.7471 12.5001 14.1028 12.5001H12.9361C12.2918 12.5001 11.7695 11.9965 11.7695 11.3751V4.25013C11.7695 3.62881 12.2918 3.12513 12.9361 3.12513ZM8.61259 5.74992H7.44593C6.80159 5.74992 6.27926 6.2536 6.27926 6.87492V11.3749C6.27926 11.9962 6.80159 12.4999 7.44593 12.4999H8.61259C9.25692 12.4999 9.77926 11.9962 9.77926 11.3749V6.87492C9.77926 6.2536 9.25692 5.74992 8.61259 5.74992ZM3.1224 7.99989H1.95573C1.3114 7.99989 0.789062 8.50356 0.789062 9.12489V11.3749C0.789062 11.9962 1.3114 12.4999 1.95573 12.4999H3.1224C3.76673 12.4999 4.28906 11.9962 4.28906 11.3749V9.12489C4.28906 8.50356 3.76673 7.99989 3.1224 7.99989Z" fill="black"/>
</svg>
