<svg width="20" height="13" viewBox="0 0 20 13" fill="none" xmlns="http://www.w3.org/2000/svg">
<path fill-rule="evenodd" clip-rule="evenodd" d="M18.8039 0.0859375H17.6373C16.9929 0.0859375 16.4706 0.589617 16.4706 1.21094V10.9609C16.4706 11.5823 16.9929 12.0859 17.6373 12.0859H18.8039C19.4482 12.0859 19.9706 11.5823 19.9706 10.9609V1.21094C19.9706 0.589617 19.4482 0.0859375 18.8039 0.0859375ZM12.1471 2.71107H13.3137C13.9581 2.71107 14.4804 3.21475 14.4804 3.83607V10.9611C14.4804 11.5824 13.9581 12.0861 13.3137 12.0861H12.1471C11.5027 12.0861 10.9804 11.5824 10.9804 10.9611V3.83607C10.9804 3.21475 11.5027 2.71107 12.1471 2.71107ZM7.82353 5.33586H6.65686C6.01253 5.33586 5.4902 5.83954 5.4902 6.46086V10.9609C5.4902 11.5822 6.01253 12.0859 6.65686 12.0859H7.82353C8.46786 12.0859 8.9902 11.5822 8.9902 10.9609V6.46086C8.9902 5.83954 8.46786 5.33586 7.82353 5.33586ZM2.33333 7.58582H1.16667C0.522334 7.58582 0 8.0895 0 8.71082V10.9608C0 11.5821 0.522334 12.0858 1.16667 12.0858H2.33333C2.97767 12.0858 3.5 11.5821 3.5 10.9608V8.71082C3.5 8.0895 2.97767 7.58582 2.33333 7.58582Z" fill="black"/>
</svg>
