<svg width="21" height="13" viewBox="0 0 21 13" fill="none" xmlns="http://www.w3.org/2000/svg">
<path fill-rule="evenodd" clip-rule="evenodd" d="M19.5031 0.34375H18.3365C17.6921 0.34375 17.1698 0.84743 17.1698 1.46875V11.2188C17.1698 11.8401 17.6921 12.3438 18.3365 12.3438H19.5031C20.1475 12.3438 20.6698 11.8401 20.6698 11.2188V1.46875C20.6698 0.84743 20.1475 0.34375 19.5031 0.34375ZM12.8463 2.96888H14.0129C14.6573 2.96888 15.1796 3.47256 15.1796 4.09388V11.2189C15.1796 11.8402 14.6573 12.3439 14.0129 12.3439H12.8463C12.2019 12.3439 11.6796 11.8402 11.6796 11.2189V4.09388C11.6796 3.47256 12.2019 2.96888 12.8463 2.96888ZM8.52275 5.59367H7.35608C6.71175 5.59367 6.18941 6.09735 6.18941 6.71867V11.2187C6.18941 11.84 6.71175 12.3437 7.35608 12.3437H8.52275C9.16708 12.3437 9.68941 11.84 9.68941 11.2187V6.71867C9.68941 6.09735 9.16708 5.59367 8.52275 5.59367ZM3.03255 7.84364H1.86589C1.22155 7.84364 0.699219 8.34731 0.699219 8.96864V11.2186C0.699219 11.84 1.22155 12.3436 1.86589 12.3436H3.03255C3.67688 12.3436 4.19922 11.84 4.19922 11.2186V8.96864C4.19922 8.34731 3.67688 7.84364 3.03255 7.84364Z" fill="white"/>
</svg>
