<svg width="21" height="13" viewBox="0 0 21 13" fill="none" xmlns="http://www.w3.org/2000/svg">
<path fill-rule="evenodd" clip-rule="evenodd" d="M19.4006 0.5H18.2339C17.5896 0.5 17.0673 1.00368 17.0673 1.625V11.375C17.0673 11.9963 17.5896 12.5 18.2339 12.5H19.4006C20.0449 12.5 20.5673 11.9963 20.5673 11.375V1.625C20.5673 1.00368 20.0449 0.5 19.4006 0.5ZM12.7437 3.12513H13.9104C14.5547 3.12513 15.0771 3.62881 15.0771 4.25013V11.3751C15.0771 11.9965 14.5547 12.5001 13.9104 12.5001H12.7437C12.0994 12.5001 11.5771 11.9965 11.5771 11.3751V4.25013C11.5771 3.62881 12.0994 3.12513 12.7437 3.12513ZM8.42021 5.74992H7.25354C6.60921 5.74992 6.08688 6.2536 6.08688 6.87492V11.3749C6.08688 11.9962 6.60921 12.4999 7.25354 12.4999H8.42021C9.06454 12.4999 9.58688 11.9962 9.58688 11.3749V6.87492C9.58688 6.2536 9.06454 5.74992 8.42021 5.74992ZM2.93001 7.99989H1.76335C1.11901 7.99989 0.59668 8.50356 0.59668 9.12489V11.3749C0.59668 11.9962 1.11901 12.4999 1.76335 12.4999H2.93001C3.57435 12.4999 4.09668 11.9962 4.09668 11.3749V9.12489C4.09668 8.50356 3.57435 7.99989 2.93001 7.99989Z" fill="black"/>
</svg>
