<svg width="21" height="13" viewBox="0 0 21 13" fill="none" xmlns="http://www.w3.org/2000/svg">
<path fill-rule="evenodd" clip-rule="evenodd" d="M18.9777 0.5H17.8111C17.1667 0.5 16.6444 1.00368 16.6444 1.625V11.375C16.6444 11.9963 17.1667 12.5 17.8111 12.5H18.9777C19.6221 12.5 20.1444 11.9963 20.1444 11.375V1.625C20.1444 1.00368 19.6221 0.5 18.9777 0.5ZM12.3209 3.12513H13.4876C14.1319 3.12513 14.6542 3.62881 14.6542 4.25013V11.3751C14.6542 11.9965 14.1319 12.5001 13.4876 12.5001H12.3209C11.6766 12.5001 11.1542 11.9965 11.1542 11.3751V4.25013C11.1542 3.62881 11.6766 3.12513 12.3209 3.12513ZM7.99736 5.74992H6.83069C6.18636 5.74992 5.66402 6.2536 5.66402 6.87492V11.3749C5.66402 11.9962 6.18636 12.4999 6.83069 12.4999H7.99736C8.64169 12.4999 9.16402 11.9962 9.16402 11.3749V6.87492C9.16402 6.2536 8.64169 5.74992 7.99736 5.74992ZM2.50716 7.99989H1.34049C0.696163 7.99989 0.173828 8.50356 0.173828 9.12489V11.3749C0.173828 11.9962 0.696163 12.4999 1.34049 12.4999H2.50716C3.15149 12.4999 3.67383 11.9962 3.67383 11.3749V9.12489C3.67383 8.50356 3.15149 7.99989 2.50716 7.99989Z" fill="black"/>
</svg>
