<svg width="54" height="46" viewBox="0 0 54 46" fill="none" xmlns="http://www.w3.org/2000/svg">
<path d="M49.5679 0.773438H4.43211C1.98819 0.773438 0 2.7156 0 5.10285V32.7143C0 35.1016 1.98819 37.0438 4.43211 37.0438H26.0831V43.5539H15.2746C14.7682 43.5539 14.3577 43.9548 14.3577 44.4496C14.3577 44.9443 14.7682 45.3453 15.2746 45.3453H38.7254C39.2318 45.3453 39.6423 44.9443 39.6423 44.4496C39.6423 43.9548 39.2318 43.5539 38.7254 43.5539H27.9169V37.0438H49.5679C52.0118 37.0438 54 35.1016 54 32.7143V5.10285C54 2.7156 52.0118 0.773438 49.5679 0.773438ZM52.166 32.7143C52.166 34.1137 51.0005 35.2522 49.5679 35.2522H4.43211C2.99953 35.2522 1.834 34.1137 1.834 32.7143V5.10285C1.834 3.70343 2.99953 2.56488 4.43211 2.56488H49.568C51.0006 2.56488 52.1661 3.70343 52.1661 5.10285V32.7143H52.166ZM48.0896 31.4432H44.1396C43.6332 31.4432 43.2227 31.8442 43.2227 32.3389C43.2227 32.8337 43.6332 33.2347 44.1396 33.2347H48.0896C48.5961 33.2347 49.0066 32.8337 49.0066 32.3389C49.0067 31.8442 48.5961 31.4432 48.0896 31.4432ZM24.8708 11.8927H13.2721C12.7656 11.8927 12.3551 12.2936 12.3551 12.7884C12.3551 13.2831 12.7656 13.6841 13.2721 13.6841H18.1544V25.7809C18.1544 26.2757 18.5649 26.6767 19.0714 26.6767C19.5778 26.6767 19.9883 26.2757 19.9883 25.7809V13.6842H24.8707C25.3772 13.6842 25.7876 13.2832 25.7876 12.7885C25.7878 12.2937 25.3773 11.8927 24.8708 11.8927ZM40.0972 11.955C39.6255 11.7735 39.0935 12 38.9079 12.4601L34.3872 23.6701L29.8665 12.4601C29.681 12 29.149 11.7739 28.6773 11.955C28.206 12.1363 27.9746 12.6564 28.1602 13.1167L33.3997 26.1093C33.5419 26.4618 33.8875 26.6769 34.2532 26.6769C34.2976 26.6769 34.3424 26.6727 34.3871 26.6663C34.432 26.6727 34.4768 26.6769 34.5213 26.6769C34.8871 26.6769 35.2326 26.4616 35.3747 26.1093L40.6143 13.1167C40.7999 12.6564 40.5685 12.1363 40.0972 11.955Z" fill="#55B3FF"/>
</svg>
