<svg width="25" height="29" viewBox="0 0 25 29" fill="none" xmlns="http://www.w3.org/2000/svg">
<path d="M15.9212 7.9619C16.0509 7.9619 16.1752 7.91038 16.2669 7.81868C16.3586 7.72698 16.4102 7.60261 16.4102 7.47292V2.58532C16.4085 1.96228 16.1662 1.36397 15.7338 0.915357C15.3015 0.466745 14.7125 0.202528 14.09 0.177891C14.0219 0.184737 2.30383 0.165666 2.2457 0.184003C1.63694 0.225644 1.06662 0.496638 0.649839 0.942305C0.233053 1.38797 0.000821273 1.97514 0 2.58532V25.7684C0.000728009 26.4066 0.254609 27.0186 0.705946 27.4699C1.15728 27.9212 1.76921 28.1751 2.40749 28.1758H14.0027C14.641 28.1751 15.2529 27.9212 15.7042 27.4699C16.1556 27.0185 16.4094 26.4066 16.4102 25.7684V21.8988C16.3869 21.248 15.4519 21.2561 15.4322 21.8988V25.7683C15.4318 26.1473 15.281 26.5106 15.0131 26.7786C14.7451 27.0466 14.3817 27.1973 14.0027 27.1978H2.40725C2.0283 27.1973 1.66502 27.0465 1.39708 26.7786C1.12914 26.5106 0.978413 26.1473 0.97796 25.7684V2.58532C0.978408 2.25854 1.09063 1.94174 1.296 1.68754C1.50136 1.43335 1.7875 1.25705 2.10689 1.18794L2.60687 1.82746C2.95529 2.27589 3.40188 2.63846 3.91232 2.88732C4.42276 3.13618 4.98346 3.26469 5.55133 3.26299H10.8591C11.427 3.26469 11.9877 3.13618 12.4982 2.88732C13.0086 2.63846 13.4552 2.27589 13.8036 1.82746L14.3036 1.18794C14.6229 1.25711 14.909 1.43343 15.1143 1.68762C15.3196 1.94181 15.4318 2.25858 15.4322 2.58532V7.47292C15.4322 7.60261 15.4837 7.72698 15.5754 7.81868C15.6671 7.91038 15.7915 7.9619 15.9212 7.9619ZM13.0329 1.22498C12.7757 1.55608 12.4459 1.8238 12.0691 2.00754C11.6922 2.19129 11.2782 2.28617 10.8589 2.28491H5.55108C5.11698 2.28562 4.68886 2.1837 4.30165 1.98746C3.91443 1.79122 3.57909 1.50623 3.32299 1.15573H13.0871L13.0329 1.22498Z" fill="#389BEC"/>
<path d="M14.0107 14.0593C14.0738 10.9983 11.3768 8.30093 8.31565 8.36438C7.56748 8.36232 6.82633 8.50868 6.1351 8.79499C5.44388 9.0813 4.81631 9.50187 4.28872 10.0323C0.716169 13.5591 3.29853 19.7964 8.31577 19.7542C11.3767 19.8174 14.074 17.1205 14.0107 14.0593ZM8.31565 18.7763C4.16024 18.8108 2.02064 13.6448 4.98032 10.7238C7.92997 7.76416 13.0401 9.88125 13.0327 14.0594C13.085 16.5946 10.8512 18.8289 8.31565 18.7763Z" fill="#389BEC"/>
<path d="M21.4248 7.60621C21.1305 7.28446 20.5736 7.50511 20.5796 7.94116V9.01814H16.4048C15.9385 9.01814 15.4912 9.20339 15.1615 9.53313C14.8317 9.86288 14.6465 10.3101 14.6465 10.7764C14.6465 11.2428 14.8317 11.69 15.1615 12.0198C15.4912 12.3495 15.9385 12.5348 16.4048 12.5348H20.5795V13.6121C20.5703 14.0445 21.1332 14.2701 21.4247 13.9471L24.0908 11.1114C24.1761 11.0207 24.2236 10.9009 24.2236 10.7764C24.2236 10.652 24.1761 10.5322 24.0908 10.4415L21.4248 7.60621ZM21.5576 12.3786V12.0462C21.5576 11.9165 21.5061 11.7921 21.4144 11.7004C21.3227 11.6087 21.1983 11.5572 21.0686 11.5572H16.4048C15.3726 11.5187 15.3697 10.0361 16.4048 9.99646H21.0684C21.1981 9.99646 21.3225 9.94494 21.4142 9.85324C21.5059 9.76154 21.5574 9.63717 21.5574 9.50748V9.17504L23.0634 10.7768L21.5576 12.3786Z" fill="#389BEC"/>
<path d="M17.2132 14.2863C17.1221 14.2502 17.0222 14.2423 16.9266 14.2637C16.831 14.285 16.7439 14.3346 16.6768 14.406L14.0107 17.2417C13.9254 17.3323 13.8779 17.4521 13.8779 17.5766C13.8779 17.7011 13.9254 17.8209 14.0107 17.9116L16.6768 20.7473C16.9678 21.0695 17.5315 20.8455 17.522 20.4123V19.335H21.6967C22.163 19.335 22.6103 19.1498 22.94 18.82C23.2697 18.4903 23.455 18.0431 23.455 17.5767C23.455 17.1104 23.2697 16.6632 22.94 16.3334C22.6103 16.0037 22.163 15.8184 21.6967 15.8184H17.522V14.7408C17.522 14.6428 17.4926 14.5471 17.4375 14.4661C17.3824 14.385 17.3043 14.3224 17.2132 14.2863ZM21.6967 16.7963C22.7294 16.8351 22.7312 18.3175 21.6967 18.357H17.033C16.9034 18.357 16.779 18.4085 16.6873 18.5002C16.5956 18.5919 16.5441 18.7163 16.5441 18.846V19.1784L15.038 17.5767L16.5441 15.9749V16.3073C16.5441 16.437 16.5956 16.5614 16.6873 16.6531C16.779 16.7448 16.9034 16.7963 17.033 16.7963L21.6967 16.7963Z" fill="#389BEC"/>
<path d="M7.26589 25.1367C6.62013 25.1565 6.61928 26.0947 7.26589 26.1147H9.14431C9.79013 26.0949 9.79098 25.1567 9.14431 25.1367H7.26589Z" fill="#389BEC"/>
<path d="M8.11943 12.4386H9.48607C10.1323 12.4186 10.1323 11.4805 9.48607 11.4607H8.80461V10.946C8.80461 10.8163 8.7531 10.692 8.66139 10.6003C8.56969 10.5085 8.44532 10.457 8.31563 10.457C8.18595 10.457 8.06157 10.5085 7.96987 10.6003C7.87817 10.692 7.82665 10.8163 7.82665 10.946V11.4906C7.06262 11.6477 6.58587 12.3729 6.65628 13.167C6.65322 13.5585 6.80554 13.9352 7.07983 14.2145C7.35412 14.4938 7.72799 14.6529 8.11943 14.6569H8.51184C8.64286 14.6639 8.76621 14.7209 8.85648 14.8161C8.94674 14.9114 8.99706 15.0376 8.99706 15.1688C8.99706 15.3 8.94674 15.4262 8.85648 15.5214C8.76621 15.6167 8.64286 15.6737 8.51184 15.6807H7.14551C6.49968 15.7001 6.49895 16.6388 7.14551 16.6586H7.82396V17.1732C7.82396 17.3029 7.87548 17.4273 7.96718 17.519C8.05888 17.6107 8.18326 17.6622 8.31294 17.6622C8.44263 17.6622 8.567 17.6107 8.6587 17.519C8.75041 17.4273 8.80192 17.3029 8.80192 17.1732V16.6292C10.5069 16.2387 10.2791 13.7254 8.51165 13.679H8.11925C7.98711 13.6752 7.86186 13.6192 7.77092 13.5232C7.67998 13.4273 7.63077 13.2992 7.63406 13.1671V12.9506C7.63075 12.8184 7.67998 12.6903 7.77096 12.5943C7.86194 12.4984 7.98725 12.4424 8.11943 12.4386Z" fill="#389BEC"/>
</svg>
