<svg width="20" height="20" viewBox="0 0 20 20" fill="none" xmlns="http://www.w3.org/2000/svg">
<path d="M9.05656 1.12208L9.23285 1.29934L9.05656 1.12208C8.81681 1.36052 8.68187 1.6842 8.68187 2.022V8.92603H1.73855C1.40015 8.92603 1.07533 9.05971 0.835628 9.2981C0.595878 9.53654 0.460938 9.86023 0.460938 10.198C0.460938 10.5358 0.595878 10.8595 0.835628 11.098C1.07533 11.3363 1.40015 11.47 1.73855 11.47H9.95948C10.2979 11.47 10.6227 11.3363 10.8624 11.098C11.1022 10.8595 11.2371 10.5358 11.2371 10.198V2.022C11.2371 1.6842 11.1022 1.36052 10.8624 1.12208C10.6227 0.883684 10.2979 0.75 9.95948 0.75C9.62108 0.75 9.29626 0.883684 9.05656 1.12208Z" fill="#FCFCFC" stroke="white" stroke-width="0.5"/>
<path d="M9.05633 19.2737L9.23262 19.0964L9.05633 19.2737C9.29604 19.5121 9.62085 19.6458 9.95926 19.6458C10.2977 19.6458 10.6225 19.5121 10.8622 19.2737L10.6859 19.0964L10.8622 19.2737C11.1019 19.0352 11.2369 18.7116 11.2369 18.3738V11.4698H18.1802C18.5186 11.4698 18.8434 11.3361 19.0831 11.0977C19.3229 10.8593 19.4578 10.5356 19.4578 10.1978C19.4578 9.85998 19.3229 9.5363 19.0831 9.29786C18.8434 9.05946 18.5186 8.92578 18.1802 8.92578H9.95926C9.62085 8.92578 9.29604 9.05946 9.05633 9.29786C8.81658 9.5363 8.68164 9.85998 8.68164 10.1978V18.3738C8.68164 18.7116 8.81658 19.0352 9.05633 19.2737Z" fill="#FCFCFC" stroke="white" stroke-width="0.5"/>
</svg>
