<svg width="56" height="46" viewBox="0 0 56 46" fill="none" xmlns="http://www.w3.org/2000/svg">
<path d="M29.6582 31.7794H44.4874C45.0435 31.7794 45.4142 31.4172 45.4142 30.874V22.7257C45.4142 22.1824 45.0435 21.8203 44.4874 21.8203H29.6582C29.1021 21.8203 28.7314 22.1824 28.7314 22.7257V30.874C28.7313 31.4171 29.1021 31.7794 29.6582 31.7794ZM30.585 23.631H43.5606V29.9686H30.585V23.631Z" fill="#55B3FF"/>
<path d="M4.63382 20.0099H12.0485C12.6046 20.0099 12.9752 19.6478 12.9752 19.1046C12.9752 18.5613 12.6046 18.1992 12.0485 18.1992H4.63382C4.07773 18.1992 3.70703 18.5613 3.70703 19.1046C3.70703 19.6478 4.07773 20.0099 4.63382 20.0099Z" fill="#55B3FF"/>
<path d="M15.7559 20.0099H23.1705C23.7266 20.0099 24.0973 19.6478 24.0973 19.1046C24.0973 18.5613 23.7266 18.1992 23.1705 18.1992H15.7559C15.1998 18.1992 14.8291 18.5613 14.8291 19.1046C14.8291 19.6478 15.1998 20.0099 15.7559 20.0099Z" fill="#55B3FF"/>
<path d="M4.63382 23.631H16.6825C17.2386 23.631 17.6093 23.2689 17.6093 22.7256C17.6093 22.1824 17.2386 21.8203 16.6825 21.8203H4.63382C4.07773 21.8203 3.70703 22.1824 3.70703 22.7256C3.70703 23.2689 4.07773 23.631 4.63382 23.631Z" fill="#55B3FF"/>
<path d="M23.1711 21.8203H20.3907C19.8346 21.8203 19.4639 22.1824 19.4639 22.7256C19.4639 23.2689 19.8346 23.631 20.3907 23.631H23.1711C23.7272 23.631 24.0979 23.2689 24.0979 22.7256C24.0979 22.1824 23.7272 21.8203 23.1711 21.8203Z" fill="#55B3FF"/>
<path d="M54.7754 10.593C54.1266 9.77816 53.2925 9.32544 52.273 9.23494L50.0486 8.9716V6.42822V4.61754C50.0486 2.62576 48.3803 0.996094 46.3413 0.996094H3.70727C1.66829 0.995988 0 2.62566 0 4.61754V6.42832V13.6713V33.5895C0 35.2248 1.1249 36.6152 2.6559 37.0608C2.60919 38.8923 4.02778 40.4822 5.93175 40.6514L48.7511 45.3593C48.8437 45.3593 49.0291 45.3593 49.1218 45.3593C50.9755 45.3593 52.6438 44.0012 52.829 42.281L55.6095 13.2186C55.7022 12.3132 55.4241 11.3172 54.7754 10.593ZM1.85369 7.33366H48.195V9.68766V12.7659H1.85369V7.33366ZM3.70727 2.80677H46.3412C47.3607 2.80677 48.1949 3.6216 48.1949 4.61754V5.52288H1.85369V4.61754C1.85369 3.6216 2.68783 2.80677 3.70727 2.80677ZM1.85369 33.5894V14.5766H48.195V33.5894C48.195 34.5853 47.3608 35.4001 46.3413 35.4001H3.80002H3.70737C2.68783 35.4001 1.85369 34.5853 1.85369 33.5894ZM53.7558 12.8564L50.9754 41.9188C50.8827 42.9148 49.9558 43.639 48.9364 43.5485L6.20969 38.8406C5.2829 38.7501 4.63405 38.0257 4.54141 37.2109H46.3412C48.3802 37.2109 50.0485 35.5812 50.0485 33.5895V13.6712V10.6835L52.1802 10.8646C52.6436 10.8646 53.107 11.1362 53.385 11.4983C53.6632 11.8604 53.8486 12.4037 53.7558 12.8564Z" fill="#55B3FF"/>
</svg>
