<svg width="25" height="22" viewBox="0 0 25 22" fill="none" xmlns="http://www.w3.org/2000/svg">
<path fill-rule="evenodd" clip-rule="evenodd" d="M12.0569 1.82399C8.90614 -0.0664819 5.05272 -0.375246 1.64111 0.9894C1.1442 1.18816 0.818359 1.66943 0.818359 2.20462V15.3209C0.818359 16.1994 1.70571 16.8002 2.52146 16.4739C5.31522 15.3564 8.47078 15.6093 11.0509 17.1574L12.3281 17.9237C12.4255 17.9821 12.5297 18.0077 12.6309 18.0059C12.732 18.0077 12.8362 17.9821 12.9336 17.9237L14.2108 17.1574C16.7909 15.6093 19.9465 15.3564 22.7403 16.4739C23.556 16.8002 24.4434 16.1994 24.4434 15.3209V2.20462C24.4434 1.66943 24.1175 1.18816 23.6206 0.9894C20.209 -0.375246 16.3556 -0.0664819 13.2048 1.82399L12.6309 2.16835L12.0569 1.82399ZM13.4746 4.51183C13.4746 4.04584 13.0968 3.66808 12.6309 3.66808C12.1649 3.66808 11.7871 4.04584 11.7871 4.51183V15.1993C11.7871 15.6653 12.1649 16.0431 12.6309 16.0431C13.0969 16.0431 13.4746 15.6653 13.4746 15.1993V4.51183Z" fill="#55B3FF"/>
<path d="M2.1963 18.6218C4.47314 17.2937 7.28858 17.2937 9.56541 18.6218L10.7886 19.3354C11.927 19.9994 13.3347 19.9994 14.4731 19.3354L15.6963 18.6218C17.9731 17.2937 20.7886 17.2937 23.0654 18.6218L23.181 18.6893C23.5835 18.9241 23.7195 19.4407 23.4847 19.8432C23.2499 20.2457 22.7332 20.3817 22.3307 20.1469L22.2151 20.0795C20.4637 19.0578 18.298 19.0578 16.5466 20.0795L15.3234 20.793C13.6596 21.7636 11.6021 21.7636 9.9383 20.793L8.71513 20.0795C6.96372 19.0578 4.798 19.0578 3.04659 20.0795L2.931 20.1469C2.52849 20.3817 2.01184 20.2457 1.77705 19.8432C1.54225 19.4407 1.67821 18.9241 2.08072 18.6893L2.1963 18.6218Z" fill="#55B3FF"/>
</svg>
