<svg width="11" height="14" viewBox="0 0 11 14" fill="none" xmlns="http://www.w3.org/2000/svg">
<path fill-rule="evenodd" clip-rule="evenodd" d="M0.198242 5.8772C0.198242 2.81063 2.61227 0.332031 5.53229 0.332031C8.46054 0.332031 10.8746 2.81063 10.8746 5.8772C10.8746 7.42249 10.3452 8.85712 9.47377 10.0731C8.51247 11.4144 7.32762 12.583 5.99395 13.5003C5.68871 13.7123 5.41324 13.7283 5.07823 13.5003C3.73696 12.583 2.55211 11.4144 1.59904 10.0731C0.727024 8.85712 0.198242 7.42249 0.198242 5.8772ZM3.77433 6.04987C3.77433 7.07717 4.56402 7.88515 5.53229 7.88515C6.5012 7.88515 7.29849 7.07717 7.29849 6.04987C7.29849 5.03056 6.5012 4.18325 5.53229 4.18325C4.56402 4.18325 3.77433 5.03056 3.77433 6.04987Z" fill="#14142A"/>
</svg>
