<svg width="12" height="14" viewBox="0 0 12 14" fill="none" xmlns="http://www.w3.org/2000/svg">
<path fill-rule="evenodd" clip-rule="evenodd" d="M0.333008 5.8772C0.333008 2.81063 2.8956 0.332031 5.99531 0.332031C9.10375 0.332031 11.6663 2.81063 11.6663 5.8772C11.6663 7.42249 11.1043 8.85712 10.1793 10.0731C9.15888 11.4144 7.90111 12.583 6.48537 13.5003C6.16135 13.7123 5.86892 13.7283 5.51331 13.5003C4.0895 12.583 2.83173 11.4144 1.82001 10.0731C0.89433 8.85712 0.333008 7.42249 0.333008 5.8772ZM4.12916 6.04987C4.12916 7.07717 4.96745 7.88515 5.99531 7.88515C7.02384 7.88515 7.87019 7.07717 7.87019 6.04987C7.87019 5.03056 7.02384 4.18325 5.99531 4.18325C4.96745 4.18325 4.12916 5.03056 4.12916 6.04987Z" fill="#55B3FF"/>
</svg>
