<svg width="24" height="21" viewBox="0 0 24 21" fill="none" xmlns="http://www.w3.org/2000/svg">
<path d="M1.90747 7.59133C1.90747 5.77224 3.38213 4.29758 5.20122 4.29758V4.29758C6.3025 4.29758 7.33091 3.74719 7.94179 2.83087L7.97529 2.78063C8.60709 1.83292 9.67074 1.26367 10.8097 1.26367H13.2313C14.3703 1.26367 15.4339 1.83292 16.0657 2.78063L16.0992 2.83087C16.7101 3.74719 17.7385 4.29758 18.8398 4.29758V4.29758C20.6589 4.29758 22.1335 5.77224 22.1335 7.59133V15.4219C22.1335 17.656 20.3224 19.4671 18.0883 19.4671H5.95268C3.71857 19.4671 1.90747 17.656 1.90747 15.4219V7.59133Z" stroke="#4E4B66" stroke-width="2.02261" stroke-linecap="round" stroke-linejoin="round"/>
</svg>
