<svg width="23" height="21" viewBox="0 0 23 21" fill="none" xmlns="http://www.w3.org/2000/svg">
<path d="M1.02246 7.94875C1.02246 6.12966 2.49712 4.655 4.31621 4.655V4.655C5.41749 4.655 6.4459 4.10461 7.05678 3.1883L7.09028 3.13805C7.72208 2.19034 8.78573 1.62109 9.92473 1.62109H12.3462C13.4852 1.62109 14.5489 2.19034 15.1807 3.13805L15.2142 3.18829C15.8251 4.10461 16.8535 4.655 17.9548 4.655V4.655C19.7739 4.655 21.2485 6.12967 21.2485 7.94875V15.7793C21.2485 18.0134 19.4374 19.8245 17.2033 19.8245H5.06767C2.83356 19.8245 1.02246 18.0134 1.02246 15.7793V7.94875Z" stroke="#4E4B66" stroke-width="2.02261" stroke-linecap="round" stroke-linejoin="round"/>
</svg>
