<svg width="24" height="21" viewBox="0 0 24 21" fill="none" xmlns="http://www.w3.org/2000/svg">
<path d="M1.88696 8.09133C1.88696 6.27224 3.36163 4.79758 5.18071 4.79758V4.79758C6.28199 4.79758 7.3104 4.24719 7.92128 3.33087L7.95478 3.28063C8.58659 2.33292 9.65023 1.76367 10.7892 1.76367H13.2107C14.3498 1.76367 15.4134 2.33292 16.0452 3.28063L16.0787 3.33087C16.6896 4.24719 17.718 4.79758 18.8193 4.79758V4.79758C20.6384 4.79758 22.113 6.27224 22.113 8.09133V15.9219C22.113 18.156 20.3019 19.9671 18.0678 19.9671H5.93217C3.69806 19.9671 1.88696 18.156 1.88696 15.9219V8.09133Z" stroke="#4E4B66" stroke-width="2.02261" stroke-linecap="round" stroke-linejoin="round"/>
</svg>
