<svg width="20" height="20" viewBox="0 0 20 20" fill="none" xmlns="http://www.w3.org/2000/svg">
<path fill-rule="evenodd" clip-rule="evenodd" d="M18.5098 11.58C18.8675 11.77 19.1434 12.07 19.3376 12.37C19.7157 12.99 19.685 13.75 19.3171 14.42L18.6017 15.62C18.2236 16.26 17.5185 16.66 16.7929 16.66C16.4352 16.66 16.0366 16.56 15.7096 16.36C15.4439 16.19 15.1373 16.13 14.8103 16.13C13.7985 16.13 12.9503 16.96 12.9197 17.95C12.9197 19.1 11.9795 20 10.8042 20H9.41435C8.22888 20 7.28868 19.1 7.28868 17.95C7.26824 16.96 6.42001 16.13 5.40827 16.13C5.07103 16.13 4.76444 16.19 4.50895 16.36C4.18192 16.56 3.77314 16.66 3.42568 16.66C2.68987 16.66 1.98472 16.26 1.60659 15.62L0.901442 14.42C0.523317 13.77 0.502878 12.99 0.881003 12.37C1.04452 12.07 1.3511 11.77 1.69857 11.58C1.98472 11.44 2.16867 11.21 2.3424 10.94C2.85338 10.08 2.54679 8.95 1.67813 8.44C0.666392 7.87 0.339365 6.6 0.921881 5.61L1.60659 4.43C2.19933 3.44 3.46655 3.09 4.48851 3.67C5.37761 4.15 6.53243 3.83 7.05363 2.98C7.21714 2.7 7.30911 2.4 7.28868 2.1C7.26824 1.71 7.38065 1.34 7.57482 1.04C7.95295 0.42 8.63766 0.02 9.38369 0H10.8246C11.5809 0 12.2656 0.42 12.6437 1.04C12.8277 1.34 12.9503 1.71 12.9197 2.1C12.8992 2.4 12.9912 2.7 13.1547 2.98C13.6759 3.83 14.8307 4.15 15.73 3.67C16.7418 3.09 18.0192 3.44 18.6017 4.43L19.2865 5.61C19.8792 6.6 19.5522 7.87 18.5302 8.44C17.6615 8.95 17.355 10.08 17.8762 10.94C18.0397 11.21 18.2236 11.44 18.5098 11.58ZM7.21714 10.01C7.21714 11.58 8.51502 12.83 10.1195 12.83C11.724 12.83 12.9912 11.58 12.9912 10.01C12.9912 8.44 11.724 7.18 10.1195 7.18C8.51502 7.18 7.21714 8.44 7.21714 10.01Z" fill="#4E4B66"/>
</svg>
