<svg width="11" height="11" viewBox="0 0 11 11" fill="none" xmlns="http://www.w3.org/2000/svg">
<path d="M5.31427 1.41745C5.50518 0.829906 6.33641 0.829906 6.52731 1.41745L7.281 3.73707C7.36638 3.99983 7.61124 4.17773 7.88752 4.17773H10.3265C10.9443 4.17773 11.2012 4.96827 10.7014 5.3314L8.72817 6.765C8.50466 6.92739 8.41113 7.21524 8.4965 7.478L9.25019 9.79762C9.4411 10.3852 8.76862 10.8737 8.26882 10.5106L6.29564 9.07702C6.07213 8.91463 5.76946 8.91463 5.54594 9.07702L3.57276 10.5106C3.07296 10.8737 2.40049 10.3852 2.59139 9.79762L3.34508 7.478C3.43046 7.21524 3.33693 6.92739 3.11341 6.765L1.14023 5.3314C0.640432 4.96827 0.897295 4.17773 1.51508 4.17773H3.95407C4.23035 4.17773 4.47521 3.99983 4.56059 3.73707L5.31427 1.41745Z" fill="#FFD600"/>
</svg>
