<svg width="30" height="30" viewBox="0 0 30 30" fill="none" xmlns="http://www.w3.org/2000/svg">
<path d="M14.3346 3.57376C14.6405 2.84103 15.6786 2.84103 15.9845 3.57376L18.6085 9.85961C18.7307 10.1524 18.999 10.3585 19.3135 10.4011L26.2292 11.3371C27.0042 11.442 27.2804 12.4211 26.6745 12.9155L21.3346 17.2731C21.0706 17.4885 20.952 17.8352 21.0288 18.1672L22.7361 25.5448C22.9209 26.3435 22.0227 26.949 21.3517 26.478L15.6731 22.4924C15.3649 22.2761 14.9542 22.2761 14.646 22.4924L8.96735 26.478C8.29628 26.949 7.39808 26.3436 7.58291 25.5448L9.29005 18.1672C9.36686 17.8352 9.2483 17.4885 8.98433 17.2731L3.64452 12.9155C3.03866 12.4211 3.31487 11.442 4.0898 11.3371L11.0056 10.4011C11.32 10.3585 11.5884 10.1524 11.7106 9.85961L14.3346 3.57376Z" stroke="#389BEC" stroke-width="2.38376" stroke-miterlimit="3.3292" stroke-linecap="round" stroke-linejoin="round"/>
</svg>
