<svg width="11" height="11" viewBox="0 0 11 11" fill="none" xmlns="http://www.w3.org/2000/svg">
<path d="M4.60822 1.31589C4.79913 0.728343 5.63035 0.728343 5.82126 1.31589L6.57495 3.63551C6.66032 3.89827 6.90518 4.07617 7.18146 4.07617H9.62045C10.2382 4.07617 10.4951 4.86671 9.9953 5.22984L8.02212 6.66344C7.7986 6.82583 7.70507 7.11368 7.79045 7.37644L8.54414 9.69606C8.73504 10.2836 8.06257 10.7722 7.56277 10.4091L5.58959 8.97546C5.36607 8.81307 5.06341 8.81307 4.83989 8.97546L2.86671 10.4091C2.36691 10.7722 1.69443 10.2836 1.88534 9.69606L2.63903 7.37644C2.7244 7.11368 2.63088 6.82583 2.40736 6.66344L0.434177 5.22984C-0.0656226 4.86671 0.19124 4.07617 0.809026 4.07617H3.24801C3.52429 4.07617 3.76916 3.89827 3.85453 3.63551L4.60822 1.31589Z" fill="#C4C4C4"/>
</svg>
