<svg width="11" height="11" viewBox="0 0 11 11" fill="none" xmlns="http://www.w3.org/2000/svg">
<path d="M5.31427 1.21824C5.50518 0.630687 6.33641 0.630687 6.52731 1.21824L7.281 3.53785C7.36638 3.80061 7.61124 3.97851 7.88752 3.97851H10.3265C10.9443 3.97851 11.2012 4.76905 10.7014 5.13218L8.72817 6.56578C8.50466 6.72817 8.41113 7.01603 8.4965 7.27879L9.25019 9.5984C9.4411 10.1859 8.76862 10.6745 8.26882 10.3114L6.29564 8.8778C6.07213 8.71541 5.76946 8.71541 5.54594 8.8778L3.57276 10.3114C3.07296 10.6745 2.40049 10.1859 2.59139 9.5984L3.34508 7.27878C3.43046 7.01603 3.33693 6.72817 3.11341 6.56578L1.14023 5.13218C0.640432 4.76905 0.897295 3.97851 1.51508 3.97851H3.95407C4.23035 3.97851 4.47521 3.80061 4.56059 3.53785L5.31427 1.21824Z" fill="#FFD600"/>
</svg>
