<svg width="11" height="11" viewBox="0 0 11 11" fill="none" xmlns="http://www.w3.org/2000/svg">
<path d="M4.60822 1.11667C4.79913 0.529124 5.63035 0.529124 5.82126 1.11667L6.57495 3.43629C6.66032 3.69905 6.90518 3.87695 7.18146 3.87695H9.62045C10.2382 3.87695 10.4951 4.66749 9.9953 5.03062L8.02212 6.46422C7.7986 6.62661 7.70507 6.91446 7.79045 7.17722L8.54414 9.49684C8.73504 10.0844 8.06257 10.573 7.56277 10.2098L5.58959 8.77624C5.36607 8.61385 5.06341 8.61385 4.83989 8.77624L2.86671 10.2098C2.36691 10.573 1.69443 10.0844 1.88534 9.49684L2.63903 7.17722C2.7244 6.91446 2.63088 6.62661 2.40736 6.46422L0.434177 5.03062C-0.0656226 4.66749 0.19124 3.87695 0.809026 3.87695H3.24801C3.52429 3.87695 3.76916 3.69905 3.85453 3.43629L4.60822 1.11667Z" fill="#C4C4C4"/>
</svg>
