<svg width="11" height="11" viewBox="0 0 11 11" fill="none" xmlns="http://www.w3.org/2000/svg">
<path d="M4.46076 1.41745C4.65166 0.829906 5.48289 0.829906 5.6738 1.41745L6.42748 3.73707C6.51286 3.99983 6.75772 4.17773 7.034 4.17773H9.47299C10.0908 4.17773 10.3476 4.96827 9.84784 5.3314L7.87466 6.765C7.65114 6.92739 7.55761 7.21524 7.64299 7.478L8.39668 9.79762C8.58758 10.3852 7.91511 10.8737 7.41531 10.5106L5.44213 9.07702C5.21861 8.91463 4.91595 8.91463 4.69243 9.07702L2.71925 10.5106C2.21945 10.8737 1.54697 10.3852 1.73788 9.79762L2.49157 7.478C2.57694 7.21524 2.48341 6.92739 2.2599 6.765L0.286716 5.3314C-0.213084 4.96827 0.0437793 4.17773 0.661565 4.17773H3.10055C3.37683 4.17773 3.62169 3.99983 3.70707 3.73707L4.46076 1.41745Z" fill="#FFD600"/>
</svg>
