<svg width="11" height="11" viewBox="0 0 11 11" fill="none" xmlns="http://www.w3.org/2000/svg">
<path d="M4.46076 1.31589C4.65166 0.728343 5.48289 0.728343 5.6738 1.31589L6.42748 3.63551C6.51286 3.89827 6.75772 4.07617 7.034 4.07617H9.47299C10.0908 4.07617 10.3476 4.86671 9.84784 5.22984L7.87466 6.66344C7.65114 6.82583 7.55761 7.11368 7.64299 7.37644L8.39668 9.69606C8.58758 10.2836 7.91511 10.7722 7.41531 10.4091L5.44213 8.97546C5.21861 8.81307 4.91595 8.81307 4.69243 8.97546L2.71925 10.4091C2.21945 10.7722 1.54697 10.2836 1.73788 9.69606L2.49157 7.37644C2.57694 7.11368 2.48341 6.82583 2.2599 6.66344L0.286716 5.22984C-0.213084 4.86671 0.0437793 4.07617 0.661565 4.07617H3.10055C3.37683 4.07617 3.62169 3.89827 3.70707 3.63551L4.46076 1.31589Z" fill="#FFD600"/>
</svg>
