<svg width="11" height="11" viewBox="0 0 11 11" fill="none" xmlns="http://www.w3.org/2000/svg">
<path d="M5.31427 1.11667C5.50518 0.529124 6.33641 0.529124 6.52731 1.11667L7.281 3.43629C7.36638 3.69905 7.61124 3.87695 7.88752 3.87695H10.3265C10.9443 3.87695 11.2012 4.66749 10.7014 5.03062L8.72817 6.46422C8.50466 6.62661 8.41113 6.91446 8.4965 7.17722L9.25019 9.49684C9.4411 10.0844 8.76862 10.573 8.26882 10.2098L6.29564 8.77624C6.07213 8.61385 5.76946 8.61385 5.54594 8.77624L3.57276 10.2098C3.07296 10.573 2.40049 10.0844 2.59139 9.49684L3.34508 7.17722C3.43046 6.91446 3.33693 6.62661 3.11341 6.46422L1.14023 5.03062C0.640432 4.66749 0.897295 3.87695 1.51508 3.87695H3.95407C4.23035 3.87695 4.47521 3.69905 4.56059 3.43629L5.31427 1.11667Z" fill="#FFD600"/>
</svg>
