<svg width="11" height="11" viewBox="0 0 11 11" fill="none" xmlns="http://www.w3.org/2000/svg">
<path d="M4.70685 1.21824C4.89776 0.630687 5.72898 0.630687 5.91989 1.21824L6.67358 3.53785C6.75895 3.80061 7.00382 3.97851 7.2801 3.97851H9.71908C10.3369 3.97851 10.5937 4.76905 10.0939 5.13218L8.12075 6.56578C7.89723 6.72817 7.80371 7.01603 7.88908 7.27879L8.64277 9.5984C8.83368 10.1859 8.1612 10.6745 7.6614 10.3114L5.68822 8.8778C5.4647 8.71541 5.16204 8.71541 4.93852 8.8778L2.96534 10.3114C2.46554 10.6745 1.79307 10.1859 1.98397 9.5984L2.73766 7.27878C2.82304 7.01603 2.72951 6.72817 2.50599 6.56578L0.532809 5.13218C0.0330102 4.76905 0.289873 3.97851 0.907659 3.97851H3.34665C3.62293 3.97851 3.86779 3.80061 3.95316 3.53785L4.70685 1.21824Z" fill="#FFD600"/>
</svg>
