<svg width="11" height="11" viewBox="0 0 11 11" fill="none" xmlns="http://www.w3.org/2000/svg">
<path d="M4.85334 1.11667C5.04424 0.529124 5.87547 0.529124 6.06637 1.11667L6.82006 3.43629C6.90544 3.69905 7.1503 3.87695 7.42658 3.87695H9.86557C10.4834 3.87695 10.7402 4.66749 10.2404 5.03062L8.26724 6.46422C8.04372 6.62661 7.95019 6.91446 8.03557 7.17722L8.78926 9.49684C8.98016 10.0844 8.30769 10.573 7.80789 10.2098L5.8347 8.77624C5.61119 8.61385 5.30852 8.61385 5.08501 8.77624L3.11182 10.2098C2.61203 10.573 1.93955 10.0844 2.13046 9.49684L2.88415 7.17722C2.96952 6.91446 2.87599 6.62661 2.65248 6.46422L0.679294 5.03062C0.179495 4.66749 0.436357 3.87695 1.05414 3.87695H3.49313C3.76941 3.87695 4.01427 3.69905 4.09965 3.43629L4.85334 1.11667Z" fill="#FFD600"/>
</svg>
