<svg width="11" height="11" viewBox="0 0 11 11" fill="none" xmlns="http://www.w3.org/2000/svg">
<path d="M4.85334 1.21824C5.04424 0.630687 5.87547 0.630687 6.06637 1.21824L6.82006 3.53785C6.90544 3.80061 7.1503 3.97851 7.42658 3.97851H9.86557C10.4834 3.97851 10.7402 4.76905 10.2404 5.13218L8.26724 6.56578C8.04372 6.72817 7.95019 7.01603 8.03557 7.27879L8.78926 9.5984C8.98016 10.1859 8.30769 10.6745 7.80789 10.3114L5.8347 8.8778C5.61119 8.71541 5.30852 8.71541 5.08501 8.8778L3.11182 10.3114C2.61203 10.6745 1.93955 10.1859 2.13046 9.5984L2.88415 7.27878C2.96952 7.01603 2.87599 6.72817 2.65248 6.56578L0.679294 5.13218C0.179495 4.76905 0.436357 3.97851 1.05414 3.97851H3.49313C3.76941 3.97851 4.01427 3.80061 4.09965 3.53785L4.85334 1.21824Z" fill="#FFD600"/>
</svg>
