<svg width="11" height="11" viewBox="0 0 11 11" fill="none" xmlns="http://www.w3.org/2000/svg">
<path d="M4.70685 1.11667C4.89776 0.529124 5.72898 0.529124 5.91989 1.11667L6.67358 3.43629C6.75895 3.69905 7.00382 3.87695 7.2801 3.87695H9.71908C10.3369 3.87695 10.5937 4.66749 10.0939 5.03062L8.12075 6.46422C7.89723 6.62661 7.80371 6.91446 7.88908 7.17722L8.64277 9.49684C8.83368 10.0844 8.1612 10.573 7.6614 10.2098L5.68822 8.77624C5.4647 8.61385 5.16204 8.61385 4.93852 8.77624L2.96534 10.2098C2.46554 10.573 1.79307 10.0844 1.98397 9.49684L2.73766 7.17722C2.82304 6.91446 2.72951 6.62661 2.50599 6.46422L0.532809 5.03062C0.0330102 4.66749 0.289873 3.87695 0.907659 3.87695H3.34665C3.62293 3.87695 3.86779 3.69905 3.95316 3.43629L4.70685 1.11667Z" fill="#FFD600"/>
</svg>
