<svg width="11" height="10" viewBox="0 0 11 10" fill="none" xmlns="http://www.w3.org/2000/svg">
<path d="M4.85334 0.515111C5.04424 -0.0724381 5.87547 -0.0724382 6.06637 0.515111L6.82006 2.83473C6.90544 3.09749 7.1503 3.27539 7.42658 3.27539H9.86557C10.4834 3.27539 10.7402 4.06593 10.2404 4.42905L8.26724 5.86265C8.04372 6.02505 7.95019 6.3129 8.03557 6.57566L8.78926 8.89527C8.98016 9.48282 8.30769 9.97141 7.80789 9.60828L5.8347 8.17468C5.61119 8.01229 5.30852 8.01229 5.08501 8.17468L3.11182 9.60828C2.61203 9.97141 1.93955 9.48282 2.13046 8.89527L2.88415 6.57566C2.96952 6.3129 2.87599 6.02505 2.65248 5.86265L0.679294 4.42905C0.179495 4.06593 0.436357 3.27539 1.05414 3.27539H3.49313C3.76941 3.27539 4.01427 3.09749 4.09965 2.83472L4.85334 0.515111Z" fill="#FFD600"/>
</svg>
