<svg width="11" height="11" viewBox="0 0 11 11" fill="none" xmlns="http://www.w3.org/2000/svg">
<path d="M4.46076 1.11667C4.65166 0.529124 5.48289 0.529124 5.6738 1.11667L6.42748 3.43629C6.51286 3.69905 6.75772 3.87695 7.034 3.87695H9.47299C10.0908 3.87695 10.3476 4.66749 9.84784 5.03062L7.87466 6.46422C7.65114 6.62661 7.55761 6.91446 7.64299 7.17722L8.39668 9.49684C8.58758 10.0844 7.91511 10.573 7.41531 10.2098L5.44213 8.77624C5.21861 8.61385 4.91595 8.61385 4.69243 8.77624L2.71925 10.2098C2.21945 10.573 1.54697 10.0844 1.73788 9.49684L2.49157 7.17722C2.57694 6.91446 2.48341 6.62661 2.2599 6.46422L0.286716 5.03062C-0.213084 4.66749 0.0437793 3.87695 0.661565 3.87695H3.10055C3.37683 3.87695 3.62169 3.69905 3.70707 3.43629L4.46076 1.11667Z" fill="#FFD600"/>
</svg>
