<svg width="11" height="11" viewBox="0 0 11 11" fill="none" xmlns="http://www.w3.org/2000/svg">
<path d="M4.85334 1.41745C5.04424 0.829906 5.87547 0.829906 6.06637 1.41745L6.82006 3.73707C6.90544 3.99983 7.1503 4.17773 7.42658 4.17773H9.86557C10.4834 4.17773 10.7402 4.96827 10.2404 5.3314L8.26724 6.765C8.04372 6.92739 7.95019 7.21524 8.03557 7.478L8.78926 9.79762C8.98016 10.3852 8.30769 10.8737 7.80789 10.5106L5.8347 9.07702C5.61119 8.91463 5.30852 8.91463 5.08501 9.07702L3.11182 10.5106C2.61203 10.8737 1.93955 10.3852 2.13046 9.79762L2.88415 7.478C2.96952 7.21524 2.87599 6.92739 2.65248 6.765L0.679294 5.3314C0.179495 4.96827 0.436357 4.17773 1.05414 4.17773H3.49313C3.76941 4.17773 4.01427 3.99983 4.09965 3.73707L4.85334 1.41745Z" fill="#FFD600"/>
</svg>
