<svg width="11" height="11" viewBox="0 0 11 11" fill="none" xmlns="http://www.w3.org/2000/svg">
<path d="M4.85334 1.31589C5.04424 0.728343 5.87547 0.728343 6.06637 1.31589L6.82006 3.63551C6.90544 3.89827 7.1503 4.07617 7.42658 4.07617H9.86557C10.4834 4.07617 10.7402 4.86671 10.2404 5.22984L8.26724 6.66344C8.04372 6.82583 7.95019 7.11368 8.03557 7.37644L8.78926 9.69606C8.98016 10.2836 8.30769 10.7722 7.80789 10.4091L5.8347 8.97546C5.61119 8.81307 5.30852 8.81307 5.08501 8.97546L3.11182 10.4091C2.61203 10.7722 1.93955 10.2836 2.13046 9.69606L2.88415 7.37644C2.96952 7.11368 2.87599 6.82583 2.65248 6.66344L0.679294 5.22984C0.179495 4.86671 0.436357 4.07617 1.05414 4.07617H3.49313C3.76941 4.07617 4.01427 3.89827 4.09965 3.63551L4.85334 1.31589Z" fill="#FFD600"/>
</svg>
