<svg width="11" height="10" viewBox="0 0 11 10" fill="none" xmlns="http://www.w3.org/2000/svg">
<path d="M4.46076 0.515111C4.65166 -0.0724381 5.48289 -0.0724382 5.6738 0.515111L6.42748 2.83473C6.51286 3.09749 6.75772 3.27539 7.034 3.27539H9.47299C10.0908 3.27539 10.3476 4.06593 9.84784 4.42905L7.87466 5.86265C7.65114 6.02505 7.55761 6.3129 7.64299 6.57566L8.39668 8.89527C8.58758 9.48282 7.91511 9.97141 7.41531 9.60828L5.44213 8.17468C5.21861 8.01229 4.91595 8.01229 4.69243 8.17468L2.71925 9.60828C2.21945 9.97141 1.54697 9.48282 1.73788 8.89527L2.49157 6.57566C2.57694 6.3129 2.48341 6.02505 2.2599 5.86265L0.286716 4.42905C-0.213084 4.06593 0.0437793 3.27539 0.661565 3.27539H3.10055C3.37683 3.27539 3.62169 3.09749 3.70707 2.83472L4.46076 0.515111Z" fill="#FFD600"/>
</svg>
