<svg width="5" height="11" viewBox="0 0 5 11" fill="none" xmlns="http://www.w3.org/2000/svg">
<path fill-rule="evenodd" clip-rule="evenodd" d="M2.07312 1.04887C2.07312 0.768391 2.30049 0.541016 2.58098 0.541016C2.86146 0.541016 3.08883 0.768391 3.08883 1.04887V1.56945C4.14942 1.79019 4.94829 2.76108 4.94829 3.92537C4.94829 4.34704 4.6185 4.68887 4.21167 4.68887C3.80485 4.68887 3.47505 4.34704 3.47505 3.92537C3.47505 3.44157 3.09667 3.04938 2.62991 3.04938C2.16315 3.04938 1.78477 3.44157 1.78477 3.92537C1.78477 4.40916 2.16315 4.80135 2.62991 4.80135L2.63326 4.80136C3.91227 4.80306 4.9486 5.87827 4.9486 7.20435C4.9486 8.36831 4.15019 9.33898 3.09006 9.56009L3.09006 10.1267C3.09006 10.4072 2.86268 10.6346 2.5822 10.6346C2.30172 10.6346 2.07435 10.4072 2.07435 10.1267L2.07435 9.53784C1.06239 9.27973 0.311833 8.33289 0.311833 7.20435C0.311833 6.78268 0.64163 6.44085 1.04845 6.44085C1.45528 6.44085 1.78508 6.78268 1.78508 7.20435C1.78508 7.68815 2.16346 8.08034 2.63022 8.08034C3.09698 8.08034 3.47536 7.68815 3.47536 7.20435C3.47536 6.72056 3.09698 6.32837 2.63022 6.32837L2.62686 6.32836C1.34785 6.32666 0.311523 5.25145 0.311523 3.92537C0.311523 2.79717 1.06163 1.85057 2.07312 1.59212V1.04887Z" fill="#389BEC"/>
</svg>
