<svg width="11" height="11" viewBox="0 0 11 11" fill="none" xmlns="http://www.w3.org/2000/svg">
<path fill-rule="evenodd" clip-rule="evenodd" d="M6.60742 1.0957C6.60742 0.543418 6.15971 0.0957031 5.60742 0.0957031C5.05514 0.0957031 4.60742 0.543418 4.60742 1.0957V4.3457H1.35742C0.805137 4.3457 0.357422 4.79342 0.357422 5.3457C0.357422 5.89799 0.805137 6.3457 1.35742 6.3457H4.60742V9.5957C4.60742 10.148 5.05514 10.5957 5.60742 10.5957C6.15971 10.5957 6.60742 10.148 6.60742 9.5957V6.3457H9.85742C10.4097 6.3457 10.8574 5.89799 10.8574 5.3457C10.8574 4.79342 10.4097 4.3457 9.85742 4.3457H6.60742V1.0957Z" fill="white"/>
</svg>
