<svg width="12" height="12" viewBox="0 0 12 12" fill="none" xmlns="http://www.w3.org/2000/svg">
<path fill-rule="evenodd" clip-rule="evenodd" d="M6.95927 0.898727C6.95927 0.428262 6.57789 0.046875 6.10742 0.046875C5.63696 0.046875 5.25557 0.428262 5.25557 0.898727V4.94502H1.20927C0.738808 4.94502 0.357422 5.32641 0.357422 5.79687C0.357422 6.26734 0.738808 6.64873 1.20927 6.64873H5.25557V10.695C5.25557 11.1655 5.63696 11.5469 6.10742 11.5469C6.57789 11.5469 6.95927 11.1655 6.95927 10.695V6.64873H11.0056C11.476 6.64873 11.8574 6.26734 11.8574 5.79688C11.8574 5.32641 11.476 4.94502 11.0056 4.94502H6.95927V0.898727Z" fill="white"/>
</svg>
