<svg width="38" height="36" viewBox="0 0 38 36" fill="none" xmlns="http://www.w3.org/2000/svg">
<path fill-rule="evenodd" clip-rule="evenodd" d="M10.8329 0.0351562C8.60168 0.0351562 6.79291 1.84392 6.79291 4.07516V18.2412C6.79291 20.4724 8.60168 22.2812 10.8329 22.2812H26.9563C29.1876 22.2812 30.9963 20.4724 30.9963 18.2412V8.02585C30.9963 5.79462 29.1876 3.98585 26.9563 3.98585H10.3069C9.74929 3.98585 9.29721 3.53378 9.29721 2.97611C9.29721 2.91056 9.29097 2.84646 9.27904 2.78439C9.64957 2.33882 10.2081 2.05516 10.8329 2.05516H27.9902C28.548 2.05516 29.0002 1.60296 29.0002 1.04516C29.0002 0.487349 28.548 0.0351562 27.9902 0.0351562H10.8329ZM8.81291 18.2412V5.61247C9.25381 5.86286 9.76368 6.00585 10.3069 6.00585H26.9563C28.0719 6.00585 28.9763 6.91024 28.9763 8.02585V18.2412C28.9763 19.3568 28.0719 20.2612 26.9563 20.2612H10.8329C9.7173 20.2612 8.81291 19.3568 8.81291 18.2412Z" fill="#CFD1DE"/>
<path fill-rule="evenodd" clip-rule="evenodd" d="M0.678711 27.7275V35.0002H3.30655C3.87947 35.0002 4.34467 34.915 4.70215 34.7446C5.05963 34.5741 5.32123 34.3433 5.48695 34.0521C5.65267 33.7609 5.73553 33.433 5.73553 33.0684C5.73553 32.6849 5.65977 32.3606 5.50826 32.0954C5.35674 31.8303 5.16853 31.6267 4.94363 31.4846C4.71872 31.3426 4.495 31.2644 4.27246 31.2502V31.1792C4.48079 31.1224 4.67374 31.0348 4.8513 30.9164C5.03122 30.7981 5.17563 30.6371 5.28453 30.4335C5.3958 30.2299 5.45144 29.9718 5.45144 29.6593C5.45144 29.3042 5.37095 28.9811 5.20996 28.6899C5.04898 28.3963 4.80395 28.1631 4.47488 27.9903C4.1458 27.8151 3.72795 27.7275 3.22132 27.7275H0.678711ZM3.30655 34.219H1.55939V31.6906H3.34917C3.6664 31.6906 3.94102 31.7545 4.17303 31.8823C4.40504 32.0078 4.58378 32.1759 4.70925 32.3866C4.83472 32.5949 4.89746 32.8222 4.89746 33.0684C4.89746 33.388 4.77554 33.6603 4.53169 33.8852C4.29022 34.1077 3.88184 34.219 3.30655 34.219ZM3.19292 30.9235H1.55939V28.5088H3.22132C3.70428 28.5088 4.05703 28.6212 4.27956 28.8461C4.5021 29.0687 4.61337 29.3397 4.61337 29.6593C4.61337 29.915 4.54945 30.1375 4.42161 30.3269C4.29614 30.5163 4.12568 30.6631 3.91024 30.7673C3.69718 30.8714 3.45807 30.9235 3.19292 30.9235Z" fill="#CFD1DE"/>
<path d="M7.06898 29.5457V35.0002H7.90705V29.5457H7.06898Z" fill="#CFD1DE"/>
<path d="M7.07253 28.4697C7.1909 28.581 7.33176 28.6366 7.49512 28.6366C7.65847 28.6366 7.79815 28.581 7.91415 28.4697C8.03252 28.3584 8.09171 28.2247 8.09171 28.0684C8.09171 27.9122 8.03252 27.7784 7.91415 27.6671C7.79815 27.5559 7.65847 27.5002 7.49512 27.5002C7.33176 27.5002 7.1909 27.5559 7.07253 27.6671C6.95653 27.7784 6.89853 27.9122 6.89853 28.0684C6.89853 28.2247 6.95653 28.3584 7.07253 28.4697Z" fill="#CFD1DE"/>
<path d="M10.2801 35.0002V27.7275H9.44203V35.0002H10.2801Z" fill="#CFD1DE"/>
<path d="M12.6531 35.0002V27.7275H11.8151V35.0002H12.6531Z" fill="#CFD1DE"/>
<path fill-rule="evenodd" clip-rule="evenodd" d="M15.115 34.7659C15.4961 34.9979 15.9495 35.1139 16.4751 35.1139C16.8444 35.1139 17.177 35.0571 17.4729 34.9434C17.7689 34.8274 18.0174 34.6664 18.2187 34.4605C18.4199 34.2521 18.5631 34.0107 18.6483 33.736L17.8387 33.5088C17.7677 33.6982 17.6671 33.8568 17.5368 33.9846C17.4066 34.1101 17.2516 34.2048 17.0716 34.2687C16.8941 34.3303 16.6952 34.361 16.4751 34.361C16.1365 34.361 15.8394 34.2876 15.5837 34.1409C15.328 33.9917 15.128 33.7751 14.9836 33.491C14.8548 33.2313 14.7844 32.9199 14.7724 32.5571H18.7336V32.2019C18.7336 31.6929 18.6661 31.2644 18.5312 30.9164C18.3962 30.5684 18.2151 30.2891 17.9878 30.0784C17.7606 29.8653 17.5084 29.7114 17.2314 29.6167C16.9545 29.522 16.6739 29.4747 16.3898 29.4747C15.8974 29.4747 15.4665 29.5954 15.0972 29.8369C14.7303 30.076 14.4438 30.4098 14.2378 30.8383C14.0342 31.2644 13.9324 31.7569 13.9324 32.3156C13.9324 32.8743 14.0342 33.3643 14.2378 33.7857C14.4438 34.2048 14.7362 34.5315 15.115 34.7659ZM14.7745 31.8326C14.7905 31.5796 14.8542 31.3405 14.9658 31.1153C15.096 30.8525 15.2819 30.6394 15.5233 30.4761C15.7672 30.3104 16.056 30.2275 16.3898 30.2275C16.6929 30.2275 16.9556 30.2973 17.1782 30.437C17.4031 30.5767 17.5759 30.7673 17.6966 31.0088C17.8197 31.2502 17.8813 31.5249 17.8813 31.8326H14.7745Z" fill="#CFD1DE"/>
<path d="M22.3806 30.2559V29.5457H21.2158V28.2389H20.3778V29.5457H19.5539V30.2559H20.3778V33.665C20.3778 33.9822 20.4511 34.245 20.5979 34.4534C20.7471 34.6617 20.9341 34.8168 21.159 34.9186C21.3863 35.0204 21.6183 35.0713 21.855 35.0713C22.0113 35.0713 22.1403 35.0594 22.2421 35.0357C22.3439 35.0144 22.4232 34.9931 22.48 34.9718L22.3096 34.219L22.1675 34.2474C22.1083 34.2569 22.0326 34.2616 21.9403 34.2616C21.8171 34.2616 21.7 34.2427 21.5887 34.2048C21.4798 34.1645 21.3898 34.0864 21.3188 33.9704C21.2501 33.852 21.2158 33.6745 21.2158 33.4377V30.2559H22.3806Z" fill="#CFD1DE"/>
<path fill-rule="evenodd" clip-rule="evenodd" d="M24.5095 34.7659C24.8907 34.9979 25.344 35.1139 25.8696 35.1139C26.2389 35.1139 26.5715 35.0571 26.8675 34.9434C27.1634 34.8274 27.412 34.6664 27.6132 34.4605C27.8144 34.2521 27.9577 34.0107 28.0429 33.736L27.2332 33.5088C27.1622 33.6982 27.0616 33.8568 26.9314 33.9846C26.8012 34.1101 26.6461 34.2048 26.4662 34.2687C26.2886 34.3303 26.0898 34.361 25.8696 34.361C25.531 34.361 25.2339 34.2876 24.9782 34.1409C24.7226 33.9917 24.5225 33.7751 24.3781 33.491C24.2493 33.2313 24.1789 32.9199 24.1669 32.5571H28.1281V32.2019C28.1281 31.6929 28.0606 31.2644 27.9257 30.9164C27.7907 30.5684 27.6096 30.2891 27.3824 30.0784C27.1551 29.8653 26.903 29.7114 26.626 29.6167C26.349 29.522 26.0684 29.4747 25.7844 29.4747C25.2919 29.4747 24.8611 29.5954 24.4917 29.8369C24.1248 30.076 23.8383 30.4098 23.6324 30.8383C23.4288 31.2644 23.327 31.7569 23.327 32.3156C23.327 32.8743 23.4288 33.3643 23.6324 33.7857C23.8383 34.2048 24.1307 34.5315 24.5095 34.7659ZM24.169 31.8326C24.185 31.5796 24.2488 31.3405 24.3604 31.1153C24.4906 30.8525 24.6764 30.6394 24.9179 30.4761C25.1617 30.3104 25.4506 30.2275 25.7844 30.2275C26.0874 30.2275 26.3502 30.2973 26.5727 30.437C26.7976 30.5767 26.9704 30.7673 27.0912 31.0088C27.2143 31.2502 27.2758 31.5249 27.2758 31.8326H24.169Z" fill="#CFD1DE"/>
<path d="M29.403 29.5457V35.0002H30.241V31.5485C30.241 31.3023 30.3002 31.0833 30.4186 30.8916C30.5393 30.6974 30.7027 30.5459 30.9086 30.437C31.117 30.3258 31.3537 30.2701 31.6189 30.2701C31.7301 30.2701 31.8355 30.2784 31.9349 30.295C32.0367 30.3092 32.1018 30.3198 32.1302 30.3269V29.4747C32.0829 29.4699 32.0131 29.4664 31.9207 29.464C31.8284 29.4616 31.7514 29.4605 31.6899 29.4605C31.3632 29.4605 31.0696 29.5445 30.8092 29.7126C30.5488 29.8807 30.3689 30.0997 30.2694 30.3696H30.2126V29.5457H29.403Z" fill="#CFD1DE"/>
<path fill-rule="evenodd" clip-rule="evenodd" d="M33.7877 34.9328C34.0695 35.063 34.3831 35.1281 34.7288 35.1281C35.046 35.1281 35.3147 35.0807 35.5349 34.986C35.7551 34.8913 35.9314 34.7765 36.064 34.6416C36.1966 34.5066 36.2913 34.38 36.3481 34.2616H36.3907V35.0002H37.2288V31.4065C37.2288 30.9732 37.1578 30.6276 37.0157 30.3696C36.8737 30.1115 36.6949 29.9186 36.4795 29.7907C36.2664 29.6629 36.0451 29.5788 35.8154 29.5386C35.5882 29.496 35.3869 29.4747 35.2117 29.4747C34.9371 29.4747 34.6578 29.5125 34.3737 29.5883C34.0919 29.6617 33.8315 29.7919 33.5924 29.9789C33.3557 30.1636 33.1663 30.4216 33.0242 30.7531L33.8197 31.0372C33.912 30.8383 34.0718 30.6513 34.2991 30.4761C34.5264 30.3009 34.8401 30.2133 35.2401 30.2133C35.626 30.2133 35.9137 30.3104 36.1031 30.5045C36.2948 30.6986 36.3907 30.9709 36.3907 31.3213V31.3497C36.3907 31.4846 36.3422 31.5793 36.2451 31.6338C36.1504 31.6882 35.9989 31.7273 35.7906 31.7509C35.5846 31.7723 35.3159 31.8042 34.9845 31.8468C34.7312 31.88 34.479 31.9249 34.2281 31.9818C33.9795 32.0362 33.7522 32.1191 33.5463 32.2303C33.3403 32.3416 33.1758 32.4955 33.0526 32.692C32.9295 32.8861 32.868 33.1394 32.868 33.4519C32.868 33.8071 32.9508 34.1101 33.1166 34.361C33.2823 34.6096 33.506 34.8002 33.7877 34.9328ZM35.6947 34.1799C35.4674 34.3101 35.1881 34.3752 34.8566 34.3752C34.5228 34.3752 34.247 34.3018 34.0292 34.1551C33.8138 34.0059 33.7061 33.7857 33.7061 33.4946C33.7061 33.2815 33.7629 33.1134 33.8765 32.9903C33.9925 32.8648 34.144 32.7713 34.3311 32.7098C34.5205 32.6458 34.724 32.5997 34.9419 32.5713C35.0318 32.5594 35.149 32.5452 35.2934 32.5286C35.4402 32.5097 35.5905 32.4884 35.7444 32.4647C35.9007 32.4387 36.038 32.4091 36.1563 32.3759C36.2771 32.3404 36.3552 32.3014 36.3907 32.2588V33.0258C36.3907 33.2531 36.3315 33.4697 36.2132 33.6757C36.0972 33.8816 35.9243 34.0497 35.6947 34.1799Z" fill="#CFD1DE"/>
</svg>
