<svg width="38" height="37" viewBox="0 0 38 37" fill="none" xmlns="http://www.w3.org/2000/svg">
<path fill-rule="evenodd" clip-rule="evenodd" d="M10.9374 0.990234C8.70617 0.990234 6.8974 2.799 6.8974 5.03023V19.1963C6.8974 21.4275 8.70618 23.2363 10.9374 23.2363H27.0608C29.2921 23.2363 31.1008 21.4275 31.1008 19.1963V8.98093C31.1008 6.7497 29.292 4.94093 27.0608 4.94093H10.4114C9.85378 4.94093 9.4017 4.48885 9.4017 3.93119C9.4017 3.86564 9.39546 3.80154 9.38353 3.73946C9.75406 3.2939 10.3126 3.01023 10.9374 3.01023H28.0947C28.6525 3.01023 29.1047 2.55804 29.1047 2.00023C29.1047 1.44243 28.6525 0.990234 28.0947 0.990234H10.9374ZM8.9174 19.1963V6.56754C9.3583 6.81794 9.86817 6.96093 10.4114 6.96093H27.0608C28.1764 6.96093 29.0808 7.86531 29.0808 8.98093V19.1963C29.0808 20.3119 28.1764 21.2163 27.0608 21.2163H10.9374C9.82179 21.2163 8.9174 20.3119 8.9174 19.1963Z" fill="#CFD1DE"/>
<path fill-rule="evenodd" clip-rule="evenodd" d="M0.783203 28.6823V35.9551H3.41104C3.98396 35.9551 4.44916 35.8698 4.80664 35.6994C5.16412 35.5289 5.42572 35.2981 5.59144 35.0069C5.75716 34.7157 5.84002 34.3878 5.84002 34.0233C5.84002 33.6397 5.76426 33.3154 5.61275 33.0502C5.46123 32.7851 5.27302 32.5815 5.04812 32.4394C4.82321 32.2974 4.59949 32.2193 4.37695 32.2051V32.134C4.58529 32.0772 4.77823 31.9896 4.95579 31.8713C5.13571 31.7529 5.28013 31.5919 5.38903 31.3883C5.5003 31.1847 5.55593 30.9267 5.55593 30.6142C5.55593 30.259 5.47544 29.9359 5.31445 29.6447C5.15347 29.3511 4.90844 29.1179 4.57937 28.9451C4.2503 28.7699 3.83245 28.6823 3.32582 28.6823H0.783203ZM3.41104 35.1738H1.66388V32.6454H3.45366C3.77089 32.6454 4.04551 32.7093 4.27752 32.8372C4.50953 32.9626 4.68827 33.1307 4.81374 33.3414C4.93922 33.5498 5.00195 33.777 5.00195 34.0233C5.00195 34.3429 4.88003 34.6151 4.63619 34.84C4.39471 35.0625 3.98633 35.1738 3.41104 35.1738ZM3.29741 31.8784H1.66388V29.4636H3.32582C3.80877 29.4636 4.16152 29.576 4.38406 29.8009C4.60659 30.0235 4.71786 30.2946 4.71786 30.6142C4.71786 30.8698 4.65394 31.0924 4.5261 31.2818C4.40063 31.4712 4.23017 31.6179 4.01474 31.7221C3.80167 31.8263 3.56256 31.8784 3.29741 31.8784Z" fill="#CFD1DE"/>
<path d="M7.17347 30.5005V35.9551H8.01154V30.5005H7.17347Z" fill="#CFD1DE"/>
<path d="M7.17702 29.4245C7.2954 29.5358 7.43626 29.5914 7.59961 29.5914C7.76296 29.5914 7.90264 29.5358 8.01864 29.4245C8.13701 29.3133 8.1962 29.1795 8.1962 29.0233C8.1962 28.867 8.13701 28.7332 8.01864 28.622C7.90264 28.5107 7.76296 28.4551 7.59961 28.4551C7.43626 28.4551 7.2954 28.5107 7.17702 28.622C7.06102 28.7332 7.00302 28.867 7.00302 29.0233C7.00302 29.1795 7.06102 29.3133 7.17702 29.4245Z" fill="#CFD1DE"/>
<path d="M10.3846 35.9551V28.6823H9.54652V35.9551H10.3846Z" fill="#CFD1DE"/>
<path d="M12.7576 35.9551V28.6823H11.9196V35.9551H12.7576Z" fill="#CFD1DE"/>
<path fill-rule="evenodd" clip-rule="evenodd" d="M15.2195 35.7207C15.6006 35.9527 16.054 36.0687 16.5795 36.0687C16.9489 36.0687 17.2815 36.0119 17.5774 35.8983C17.8733 35.7822 18.1219 35.6213 18.3232 35.4153C18.5244 35.207 18.6676 34.9655 18.7528 34.6909L17.9432 34.4636C17.8722 34.653 17.7715 34.8116 17.6413 34.9394C17.5111 35.0649 17.3561 35.1596 17.1761 35.2235C16.9986 35.2851 16.7997 35.3159 16.5795 35.3159C16.241 35.3159 15.9439 35.2425 15.6882 35.0957C15.4325 34.9465 15.2325 34.7299 15.0881 34.4458C14.9593 34.1861 14.8889 33.8748 14.8769 33.5119H18.8381V33.1568C18.8381 32.6478 18.7706 32.2193 18.6357 31.8713C18.5007 31.5233 18.3196 31.2439 18.0923 31.0332C17.8651 30.8201 17.6129 30.6662 17.3359 30.5715C17.0589 30.4768 16.7784 30.4295 16.4943 30.4295C16.0019 30.4295 15.571 30.5502 15.2017 30.7917C14.8348 31.0308 14.5483 31.3646 14.3423 31.7931C14.1387 32.2193 14.0369 32.7117 14.0369 33.2704C14.0369 33.8291 14.1387 34.3192 14.3423 34.7406C14.5483 35.1596 14.8407 35.4863 15.2195 35.7207ZM14.879 32.7875C14.895 32.5344 14.9587 32.2953 15.0703 32.0701C15.2005 31.8073 15.3864 31.5943 15.6278 31.4309C15.8717 31.2652 16.1605 31.1823 16.4943 31.1823C16.7973 31.1823 17.0601 31.2522 17.2827 31.3919C17.5076 31.5315 17.6804 31.7221 17.8011 31.9636C17.9242 32.2051 17.9858 32.4797 17.9858 32.7875H14.879Z" fill="#CFD1DE"/>
<path d="M22.4851 31.2108V30.5005H21.3203V29.1937H20.4822V30.5005H19.6584V31.2108H20.4822V34.6198C20.4822 34.9371 20.5556 35.1999 20.7024 35.4082C20.8516 35.6165 21.0386 35.7716 21.2635 35.8734C21.4908 35.9752 21.7228 36.0261 21.9595 36.0261C22.1158 36.0261 22.2448 36.0143 22.3466 35.9906C22.4484 35.9693 22.5277 35.948 22.5845 35.9267L22.4141 35.1738L22.272 35.2022C22.2128 35.2117 22.1371 35.2164 22.0447 35.2164C21.9216 35.2164 21.8045 35.1975 21.6932 35.1596C21.5843 35.1194 21.4943 35.0412 21.4233 34.9252C21.3546 34.8069 21.3203 34.6293 21.3203 34.3926V31.2108H22.4851Z" fill="#CFD1DE"/>
<path fill-rule="evenodd" clip-rule="evenodd" d="M24.614 35.7207C24.9951 35.9527 25.4485 36.0687 25.9741 36.0687C26.3434 36.0687 26.676 36.0119 26.9719 35.8983C27.2679 35.7822 27.5165 35.6213 27.7177 35.4153C27.9189 35.207 28.0621 34.9655 28.1474 34.6909L27.3377 34.4636C27.2667 34.653 27.1661 34.8116 27.0359 34.9394C26.9057 35.0649 26.7506 35.1596 26.5707 35.2235C26.3931 35.2851 26.1942 35.3159 25.9741 35.3159C25.6355 35.3159 25.3384 35.2425 25.0827 35.0957C24.8271 34.9465 24.627 34.7299 24.4826 34.4458C24.3538 34.1861 24.2834 33.8748 24.2714 33.5119H28.2326V33.1568C28.2326 32.6478 28.1651 32.2193 28.0302 31.8713C27.8952 31.5233 27.7141 31.2439 27.4869 31.0332C27.2596 30.8201 27.0075 30.6662 26.7305 30.5715C26.4535 30.4768 26.1729 30.4295 25.8888 30.4295C25.3964 30.4295 24.9656 30.5502 24.5962 30.7917C24.2293 31.0308 23.9428 31.3646 23.7369 31.7931C23.5333 32.2193 23.4315 32.7117 23.4315 33.2704C23.4315 33.8291 23.5333 34.3192 23.7369 34.7406C23.9428 35.1596 24.2352 35.4863 24.614 35.7207ZM24.2735 32.7875C24.2895 32.5344 24.3533 32.2953 24.4648 32.0701C24.5951 31.8073 24.7809 31.5943 25.0224 31.4309C25.2662 31.2652 25.555 31.1823 25.8888 31.1823C26.1919 31.1823 26.4547 31.2522 26.6772 31.3919C26.9021 31.5315 27.0749 31.7221 27.1957 31.9636C27.3188 32.2051 27.3803 32.4797 27.3803 32.7875H24.2735Z" fill="#CFD1DE"/>
<path d="M29.5075 30.5005V35.9551H30.3455V32.5034C30.3455 32.2572 30.4047 32.0382 30.5231 31.8464C30.6438 31.6523 30.8072 31.5008 31.0131 31.3919C31.2215 31.2806 31.4582 31.225 31.7234 31.225C31.8346 31.225 31.94 31.2332 32.0394 31.2498C32.1412 31.264 32.2063 31.2747 32.2347 31.2818V30.4295C32.1874 30.4248 32.1175 30.4212 32.0252 30.4188C31.9329 30.4165 31.8559 30.4153 31.7944 30.4153C31.4677 30.4153 31.1741 30.4993 30.9137 30.6674C30.6533 30.8355 30.4734 31.0545 30.3739 31.3244H30.3171V30.5005H29.5075Z" fill="#CFD1DE"/>
<path fill-rule="evenodd" clip-rule="evenodd" d="M33.8922 35.8876C34.174 36.0178 34.4876 36.0829 34.8333 36.0829C35.1505 36.0829 35.4192 36.0356 35.6394 35.9409C35.8596 35.8462 36.0359 35.7313 36.1685 35.5964C36.3011 35.4615 36.3958 35.3348 36.4526 35.2164H36.4952V35.9551H37.3333V32.3613C37.3333 31.9281 37.2623 31.5824 37.1202 31.3244C36.9782 31.0663 36.7994 30.8734 36.584 30.7456C36.3709 30.6177 36.1496 30.5337 35.9199 30.4934C35.6926 30.4508 35.4914 30.4295 35.3162 30.4295C35.0416 30.4295 34.7623 30.4674 34.4782 30.5431C34.1964 30.6165 33.936 30.7467 33.6969 30.9338C33.4602 31.1184 33.2708 31.3765 33.1287 31.7079L33.9242 31.992C34.0165 31.7931 34.1763 31.6061 34.4036 31.4309C34.6309 31.2557 34.9445 31.1681 35.3446 31.1681C35.7305 31.1681 36.0182 31.2652 36.2076 31.4593C36.3993 31.6535 36.4952 31.9257 36.4952 32.2761V32.3045C36.4952 32.4394 36.4467 32.5341 36.3496 32.5886C36.2549 32.643 36.1034 32.6821 35.8951 32.7058C35.6891 32.7271 35.4204 32.759 35.089 32.8017C34.8356 32.8348 34.5835 32.8798 34.3326 32.9366C34.084 32.9911 33.8567 33.0739 33.6507 33.1852C33.4448 33.2965 33.2802 33.4503 33.1571 33.6468C33.034 33.841 32.9725 34.0943 32.9725 34.4068C32.9725 34.7619 33.0553 35.0649 33.2211 35.3159C33.3868 35.5644 33.6105 35.755 33.8922 35.8876ZM35.7992 35.1348C35.5719 35.265 35.2926 35.3301 34.9611 35.3301C34.6273 35.3301 34.3515 35.2567 34.1337 35.1099C33.9183 34.9608 33.8105 34.7406 33.8105 34.4494C33.8105 34.2363 33.8674 34.0682 33.981 33.9451C34.097 33.8197 34.2485 33.7261 34.4355 33.6646C34.6249 33.6007 34.8285 33.5545 35.0463 33.5261C35.1363 33.5143 35.2535 33.5 35.3979 33.4835C35.5447 33.4645 35.695 33.4432 35.8489 33.4196C36.0051 33.3935 36.1425 33.3639 36.2608 33.3308C36.3816 33.2953 36.4597 33.2562 36.4952 33.2136V33.9806C36.4952 34.2079 36.436 34.4245 36.3176 34.6305C36.2016 34.8365 36.0288 35.0045 35.7992 35.1348Z" fill="#CFD1DE"/>
</svg>
