<svg width="10" height="20" viewBox="0 0 10 20" fill="none" xmlns="http://www.w3.org/2000/svg">
<path fill-rule="evenodd" clip-rule="evenodd" d="M4.27023 1.25831C4.27023 0.720852 4.70592 0.285156 5.24338 0.285156C5.78084 0.285156 6.21653 0.720852 6.21653 1.25831V2.25582C8.24877 2.67886 9.77949 4.53925 9.77949 6.7702C9.77949 7.57821 9.14754 8.23323 8.36798 8.23323C7.58842 8.23323 6.95647 7.57821 6.95647 6.7702C6.95647 5.84316 6.23141 5.09164 5.33701 5.09164C4.44261 5.09164 3.71755 5.84316 3.71755 6.7702C3.71755 7.69725 4.44261 8.44876 5.33701 8.44876C5.34981 8.44876 5.36257 8.44894 5.37529 8.44929C7.81171 8.46996 9.78064 10.5235 9.78064 13.0537C9.78064 15.2844 8.25026 17.1447 6.21837 17.568L6.21837 18.6529C6.21837 19.1904 5.78268 19.6261 5.24522 19.6261C4.70776 19.6261 4.27207 19.1904 4.27207 18.6529L4.27207 17.5249C2.33344 17.03 0.895678 15.2159 0.895679 13.0537C0.895679 12.2457 1.52763 11.5907 2.30719 11.5907C3.08675 11.5907 3.7187 12.2457 3.7187 13.0537C3.7187 13.9808 4.44376 14.7323 5.33816 14.7323C6.23256 14.7323 6.95762 13.9808 6.95762 13.0537C6.95762 12.1267 6.23256 11.3752 5.33816 11.3752C5.32536 11.3752 5.3126 11.375 5.29988 11.3747C2.86346 11.354 0.894531 9.30042 0.894531 6.7702C0.894531 4.60831 2.33195 2.7944 4.27023 2.29921V1.25831Z" fill="#55B3FF"/>
</svg>
