<svg width="24" height="37" viewBox="0 0 24 37" fill="none" xmlns="http://www.w3.org/2000/svg">
<path fill-rule="evenodd" clip-rule="evenodd" d="M7.00037 6.07954C7.00037 2.72837 9.71702 0.0117188 13.0682 0.0117188C16.4193 0.0117188 19.136 2.72837 19.136 6.07954C19.136 9.4307 16.4193 12.1474 13.0682 12.1474C9.71702 12.1474 7.00037 9.4307 7.00037 6.07954ZM13.0682 2.03432C10.8341 2.03432 9.02297 3.84543 9.02297 6.07954C9.02297 8.31364 10.8341 10.1247 13.0682 10.1247C15.3023 10.1247 17.1134 8.31364 17.1134 6.07954C17.1134 3.84543 15.3023 2.03432 13.0682 2.03432Z" fill="#CFD1DE"/>
<path d="M13.0682 16.6982C10.6569 16.6982 8.37285 17.2365 6.81641 17.7185C5.93967 17.9901 5.29465 18.7845 5.13687 19.7988L4.96574 20.8989C4.87989 21.4508 4.3629 21.8286 3.81101 21.7427C3.25912 21.6569 2.88132 21.1399 2.96717 20.588L3.1383 19.4879C3.39768 17.8204 4.50226 16.3179 6.218 15.7865C7.88108 15.2714 10.3795 14.6756 13.0682 14.6756C15.7569 14.6756 18.2553 15.2714 19.9184 15.7865C21.6341 16.3179 22.7387 17.8204 22.9981 19.4879L23.1692 20.588C23.255 21.1399 22.8772 21.6569 22.3254 21.7427C21.7735 21.8286 21.2565 21.4508 21.1706 20.8989L20.9995 19.7988C20.8417 18.7845 20.1967 17.9901 19.32 17.7185C17.7635 17.2365 15.4794 16.6982 13.0682 16.6982Z" fill="#CFD1DE"/>
<path fill-rule="evenodd" clip-rule="evenodd" d="M0.688232 28.7277V36.0004H1.56891V33.3442H3.15982C3.72564 33.3442 4.18965 33.2412 4.55187 33.0352C4.91408 32.8269 5.1816 32.5475 5.35443 32.1971C5.52961 31.8468 5.61721 31.4573 5.61721 31.0288C5.61721 30.6003 5.52961 30.2121 5.35443 29.8641C5.17924 29.516 4.90935 29.2402 4.54477 29.0366C4.18255 28.8307 3.71617 28.7277 3.14562 28.7277H0.688232ZM1.56891 32.5629H3.13141C3.52204 32.5629 3.83572 32.4954 4.07247 32.3605C4.30921 32.2256 4.48085 32.0433 4.58738 31.8136C4.69628 31.5816 4.75073 31.32 4.75073 31.0288C4.75073 30.7376 4.69628 30.4772 4.58738 30.2476C4.48085 30.0179 4.30802 29.838 4.06891 29.7078C3.8298 29.5752 3.51257 29.5089 3.11721 29.5089H1.56891V32.5629Z" fill="#CFD1DE"/>
<path fill-rule="evenodd" clip-rule="evenodd" d="M7.7905 35.766C8.17166 35.998 8.62502 36.1141 9.15059 36.1141C9.51991 36.1141 9.85253 36.0572 10.1485 35.9436C10.4444 35.8276 10.693 35.6666 10.8942 35.4606C11.0954 35.2523 11.2387 35.0108 11.3239 34.7362L10.5142 34.5089C10.4432 34.6983 10.3426 34.8569 10.2124 34.9848C10.0822 35.1103 9.92711 35.205 9.74718 35.2689C9.56962 35.3304 9.37076 35.3612 9.15059 35.3612C8.81205 35.3612 8.51494 35.2878 8.25925 35.141C8.00357 34.9919 7.80353 34.7753 7.65911 34.4912C7.53032 34.2314 7.45991 33.9201 7.4479 33.5572H11.4091V33.2021C11.4091 32.6931 11.3416 32.2646 11.2067 31.9166C11.0718 31.5686 10.8906 31.2892 10.6634 31.0785C10.4361 30.8655 10.184 30.7116 9.90698 30.6169C9.62999 30.5222 9.34945 30.4748 9.06536 30.4748C8.57294 30.4748 8.14207 30.5956 7.77275 30.8371C7.4058 31.0762 7.11934 31.41 6.91337 31.8385C6.70978 32.2646 6.60798 32.757 6.60798 33.3158C6.60798 33.8745 6.70978 34.3645 6.91337 34.7859C7.11934 35.205 7.41172 35.5317 7.7905 35.766ZM7.45004 32.8328C7.466 32.5798 7.52977 32.3407 7.64136 32.1155C7.77157 31.8527 7.95741 31.6396 8.19889 31.4763C8.44273 31.3105 8.73156 31.2277 9.06536 31.2277C9.36839 31.2277 9.63118 31.2975 9.85372 31.4372C10.0786 31.5769 10.2514 31.7675 10.3722 32.0089C10.4953 32.2504 10.5568 32.525 10.5568 32.8328H7.45004Z" fill="#CFD1DE"/>
<path d="M12.684 30.5459V36.0004H13.522V32.5487C13.522 32.3025 13.5812 32.0835 13.6996 31.8918C13.8203 31.6976 13.9837 31.5461 14.1897 31.4372C14.398 31.3259 14.6347 31.2703 14.8999 31.2703C15.0111 31.2703 15.1165 31.2786 15.2159 31.2952C15.3177 31.3094 15.3828 31.32 15.4112 31.3271V30.4748C15.3639 30.4701 15.2941 30.4666 15.2017 30.4642C15.1094 30.4618 15.0325 30.4606 14.9709 30.4606C14.6442 30.4606 14.3506 30.5447 14.0902 30.7128C13.8298 30.8809 13.6499 31.0998 13.5504 31.3697H13.4936V30.5459H12.684Z" fill="#CFD1DE"/>
<path d="M19.1754 31.2561V30.5459H17.9539V29.9919C17.9539 29.722 18.0142 29.5172 18.135 29.3775C18.2581 29.2379 18.4581 29.168 18.7351 29.168C18.8558 29.168 18.9529 29.1787 19.0263 29.2C19.1021 29.2213 19.1612 29.2391 19.2039 29.2533L19.4453 28.5288C19.3814 28.5004 19.2843 28.4696 19.1541 28.4365C19.0239 28.4034 18.8558 28.3868 18.6499 28.3868C18.3895 28.3868 18.1421 28.4389 17.9077 28.543C17.6733 28.6472 17.4827 28.8034 17.336 29.0118C17.1892 29.2201 17.1158 29.4805 17.1158 29.793V30.5459H16.2351V31.2561H17.1158V36.0004H17.9539V31.2561H19.1754Z" fill="#CFD1DE"/>
<path d="M20.35 30.5459V36.0004H21.1881V30.5459H20.35Z" fill="#CFD1DE"/>
<path d="M20.3535 29.4699C20.4719 29.5811 20.6128 29.6368 20.7761 29.6368C20.9395 29.6368 21.0792 29.5811 21.1952 29.4699C21.3135 29.3586 21.3727 29.2248 21.3727 29.0686C21.3727 28.9123 21.3135 28.7786 21.1952 28.6673C21.0792 28.556 20.9395 28.5004 20.7761 28.5004C20.6128 28.5004 20.4719 28.556 20.3535 28.6673C20.2375 28.7786 20.1795 28.9123 20.1795 29.0686C20.1795 29.2248 20.2375 29.3586 20.3535 29.4699Z" fill="#CFD1DE"/>
<path d="M23.5611 36.0004V28.7277H22.723V36.0004H23.5611Z" fill="#CFD1DE"/>
</svg>
