<svg width="36" height="53" viewBox="0 0 36 53" fill="none" xmlns="http://www.w3.org/2000/svg">
<g style="mix-blend-mode:overlay" filter="url(#filter0_f_2060_11155)">
<path fill-rule="evenodd" clip-rule="evenodd" d="M11.8238 33.014C11.3919 32.6426 11 32.2118 10.6612 31.7242C8.9586 29.2739 7.55669 26.0754 6.63691 23.1307C5.76957 20.3539 4.97604 16.6916 5.41651 13.5006C5.92463 9.81944 9.37238 7.26571 13.1173 7.79665C13.7128 7.88108 14.28 8.03844 14.8108 8.25821C16.1392 6.22747 18.547 4.98097 21.1729 5.22391C24.9182 5.57041 27.6973 8.81639 27.4095 12.4902C27.4098 12.4914 27.4102 12.497 27.411 12.5072C27.4153 12.5652 27.4305 12.7715 27.5084 13.1511C27.6204 13.6959 27.8149 14.3733 28.0853 15.1159C28.6654 16.7093 29.3496 17.9459 29.6675 18.3756C31.8994 21.3926 31.2342 25.5983 28.1816 27.7693C27.495 28.2576 26.7462 28.6013 25.9724 28.8066C25.954 29.9976 25.9051 31.2657 25.7858 32.3702C25.4506 35.4747 24.4817 39.5276 21.3007 42.9079L16.6336 47.8673L6.7604 38.6094L11.4275 33.65C11.5473 33.5226 11.6879 33.3302 11.8238 33.014Z" fill="#353535" fill-opacity="0.37"/>
</g>
<defs>
<filter id="filter0_f_2060_11155" x="0.542082" y="0.446379" width="35.1951" height="52.1697" filterUnits="userSpaceOnUse" color-interpolation-filters="sRGB">
<feFlood flood-opacity="0" result="BackgroundImageFix"/>
<feBlend mode="normal" in="SourceGraphic" in2="BackgroundImageFix" result="shape"/>
<feGaussianBlur stdDeviation="2.37447" result="effect1_foregroundBlur_2060_11155"/>
</filter>
</defs>
</svg>
