<svg width="28" height="38" viewBox="0 0 28 38" fill="none" xmlns="http://www.w3.org/2000/svg">
<path fill-rule="evenodd" clip-rule="evenodd" d="M14.1964 0.196962C13.8398 -0.0656538 13.3537 -0.0656538 12.9971 0.196962L4.11903 6.73445C3.08367 7.49685 2.47242 8.70605 2.47242 9.99182V20.7317C2.47242 22.6866 4.05714 24.2713 6.01198 24.2713H9.55154C10.6686 24.2713 11.5741 23.3657 11.5741 22.2487V16.6865H15.6194V22.2487C15.6194 23.3657 16.5249 24.2713 17.642 24.2713H21.1815C23.1364 24.2713 24.7211 22.6866 24.7211 20.7317V9.99182C24.7211 8.70605 24.1098 7.49685 23.0745 6.73445L14.1964 0.196962ZM5.31833 8.36313L13.5968 2.26721L21.8752 8.36313C22.3928 8.74433 22.6985 9.34893 22.6985 9.99182V20.7317C22.6985 21.5695 22.0193 22.2487 21.1815 22.2487H17.642V16.1808C17.642 15.3431 16.9628 14.6639 16.125 14.6639H11.0685C10.2307 14.6639 9.55154 15.3431 9.55154 16.1808V22.2487H6.01198C5.17419 22.2487 4.49503 21.5695 4.49503 20.7317V9.99182C4.49503 9.34893 4.80065 8.74433 5.31833 8.36313Z" fill="#CFD1DE"/>
<path d="M0.537109 29.7273V37H1.41779V33.7472H5.29563V37H6.17632V29.7273H5.29563V32.9659H1.41779V29.7273H0.537109Z" fill="#CFD1DE"/>
<path fill-rule="evenodd" clip-rule="evenodd" d="M8.74556 36.7621C9.11725 36.9964 9.5493 37.1136 10.0417 37.1136C10.5342 37.1136 10.965 36.9964 11.3343 36.7621C11.706 36.5277 11.9949 36.1998 12.2008 35.7784C12.4092 35.357 12.5133 34.8646 12.5133 34.3011C12.5133 33.733 12.4092 33.237 12.2008 32.8132C11.9949 32.3894 11.706 32.0604 11.3343 31.826C10.965 31.5916 10.5342 31.4744 10.0417 31.4744C9.5493 31.4744 9.11725 31.5916 8.74556 31.826C8.37624 32.0604 8.08742 32.3894 7.87909 32.8132C7.67312 33.237 7.57014 33.733 7.57014 34.3011C7.57014 34.8646 7.67312 35.357 7.87909 35.7784C8.08742 36.1998 8.37624 36.5277 8.74556 36.7621ZM10.965 36.0732C10.7235 36.2649 10.4158 36.3608 10.0417 36.3608C9.66768 36.3608 9.35991 36.2649 9.11843 36.0732C8.87696 35.8814 8.69821 35.6293 8.58221 35.3168C8.46621 35.0043 8.40821 34.6657 8.40821 34.3011C8.40821 33.9366 8.46621 33.5968 8.58221 33.282C8.69821 32.9671 8.87696 32.7126 9.11843 32.5185C9.35991 32.3243 9.66768 32.2273 10.0417 32.2273C10.4158 32.2273 10.7235 32.3243 10.965 32.5185C11.2065 32.7126 11.3852 32.9671 11.5012 33.282C11.6172 33.5968 11.6753 33.9366 11.6753 34.3011C11.6753 34.6657 11.6172 35.0043 11.5012 35.3168C11.3852 35.6293 11.2065 35.8814 10.965 36.0732Z" fill="#CFD1DE"/>
<path d="M13.7926 31.5455V37H14.6307V33.5909C14.6307 33.3234 14.6875 33.0878 14.8011 32.8842C14.9171 32.6783 15.0687 32.5173 15.2557 32.4013C15.4451 32.2853 15.6487 32.2273 15.8665 32.2273C16.1837 32.2273 16.4429 32.3232 16.6442 32.5149C16.8454 32.7043 16.946 32.9541 16.946 33.2642V37H17.7983V33.4489C17.7983 33.0961 17.9036 32.8049 18.1143 32.5753C18.3251 32.3433 18.6222 32.2273 19.0057 32.2273C19.304 32.2273 19.5632 32.3137 19.7834 32.4865C20.0036 32.6593 20.1136 32.947 20.1136 33.3494V37H20.9517V33.3494C20.9517 32.7079 20.7966 32.2356 20.4865 31.9325C20.1764 31.6271 19.7775 31.4744 19.2898 31.4744C18.8992 31.4744 18.5642 31.5585 18.2848 31.7266C18.0054 31.8923 17.7959 32.116 17.6563 32.3977H17.5994C17.4645 32.1065 17.2763 31.8804 17.0348 31.7195C16.7957 31.5561 16.4962 31.4744 16.1364 31.4744C15.7813 31.4744 15.477 31.5561 15.2237 31.7195C14.9704 31.8804 14.7869 32.1065 14.6733 32.3977H14.6023V31.5455H13.7926Z" fill="#CFD1DE"/>
<path fill-rule="evenodd" clip-rule="evenodd" d="M23.4109 36.7656C23.792 36.9976 24.2454 37.1136 24.771 37.1136C25.1403 37.1136 25.4729 37.0568 25.7688 36.9432C26.0648 36.8272 26.3133 36.6662 26.5146 36.4602C26.7158 36.2519 26.859 36.0104 26.9443 35.7358L26.1346 35.5085C26.0636 35.6979 25.963 35.8565 25.8327 35.9844C25.7025 36.1098 25.5475 36.2045 25.3675 36.2685C25.19 36.33 24.9911 36.3608 24.771 36.3608C24.4324 36.3608 24.1353 36.2874 23.8796 36.1406C23.6239 35.9915 23.4239 35.7749 23.2795 35.4908C23.1507 35.231 23.0803 34.9197 23.0683 34.5568H27.0295V34.2017C27.0295 33.6927 26.962 33.2642 26.8271 32.9162C26.6921 32.5682 26.511 32.2888 26.2837 32.0781C26.0565 31.8651 25.8043 31.7112 25.5273 31.6165C25.2504 31.5218 24.9698 31.4744 24.6857 31.4744C24.1933 31.4744 23.7624 31.5952 23.3931 31.8366C23.0262 32.0758 22.7397 32.4096 22.5337 32.8381C22.3301 33.2642 22.2283 33.7566 22.2283 34.3153C22.2283 34.8741 22.3301 35.3641 22.5337 35.7855C22.7397 36.2045 23.0321 36.5312 23.4109 36.7656ZM23.0704 33.8324C23.0864 33.5794 23.1501 33.3403 23.2617 33.1151C23.3919 32.8523 23.5778 32.6392 23.8192 32.4759C24.0631 32.3101 24.3519 32.2273 24.6857 32.2273C24.9888 32.2273 25.2515 32.2971 25.4741 32.4368C25.699 32.5765 25.8718 32.767 25.9925 33.0085C26.1157 33.25 26.1772 33.5246 26.1772 33.8324H23.0704Z" fill="#CFD1DE"/>
</svg>
