<svg width="28" height="38" viewBox="0 0 28 38" fill="none" xmlns="http://www.w3.org/2000/svg">
<path fill-rule="evenodd" clip-rule="evenodd" d="M14.3545 0.196962C13.9978 -0.0656538 13.5118 -0.0656538 13.1552 0.196962L4.27711 6.73445C3.24175 7.49685 2.6305 8.70605 2.6305 9.99182V20.7317C2.6305 22.6866 4.21522 24.2713 6.17006 24.2713H9.70962C10.8267 24.2713 11.7322 23.3657 11.7322 22.2487V16.6865H15.7774V22.2487C15.7774 23.3657 16.683 24.2713 17.8 24.2713H21.3396C23.2944 24.2713 24.8792 22.6866 24.8792 20.7317V9.99182C24.8792 8.70605 24.2679 7.49685 23.2326 6.73445L14.3545 0.196962ZM5.47641 8.36313L13.7548 2.26721L22.0333 8.36313C22.5509 8.74433 22.8566 9.34893 22.8566 9.99182V20.7317C22.8566 21.5695 22.1774 22.2487 21.3396 22.2487H17.8V16.1808C17.8 15.3431 17.1209 14.6639 16.2831 14.6639H11.2266C10.3888 14.6639 9.70962 15.3431 9.70962 16.1808V22.2487H6.17006C5.33227 22.2487 4.65311 21.5695 4.65311 20.7317V9.99182C4.65311 9.34893 4.95873 8.74433 5.47641 8.36313Z" fill="#CFD1DE"/>
<path d="M0.69519 29.7273V37H1.57587V33.7472H5.45372V37H6.3344V29.7273H5.45372V32.9659H1.57587V29.7273H0.69519Z" fill="#CFD1DE"/>
<path fill-rule="evenodd" clip-rule="evenodd" d="M8.90364 36.7621C9.27533 36.9964 9.70738 37.1136 10.1998 37.1136C10.6922 37.1136 11.1231 36.9964 11.4924 36.7621C11.8641 36.5277 12.1529 36.1998 12.3589 35.7784C12.5672 35.357 12.6714 34.8646 12.6714 34.3011C12.6714 33.733 12.5672 33.237 12.3589 32.8132C12.1529 32.3894 11.8641 32.0604 11.4924 31.826C11.1231 31.5916 10.6922 31.4744 10.1998 31.4744C9.70738 31.4744 9.27533 31.5916 8.90364 31.826C8.53433 32.0604 8.2455 32.3894 8.03717 32.8132C7.8312 33.237 7.72822 33.733 7.72822 34.3011C7.72822 34.8646 7.8312 35.357 8.03717 35.7784C8.2455 36.1998 8.53433 36.5277 8.90364 36.7621ZM11.1231 36.0732C10.8816 36.2649 10.5739 36.3608 10.1998 36.3608C9.82576 36.3608 9.51799 36.2649 9.27651 36.0732C9.03504 35.8814 8.8563 35.6293 8.74029 35.3168C8.62429 35.0043 8.56629 34.6657 8.56629 34.3011C8.56629 33.9366 8.62429 33.5968 8.74029 33.282C8.8563 32.9671 9.03504 32.7126 9.27651 32.5185C9.51799 32.3243 9.82576 32.2273 10.1998 32.2273C10.5739 32.2273 10.8816 32.3243 11.1231 32.5185C11.3646 32.7126 11.5433 32.9671 11.6593 33.282C11.7753 33.5968 11.8333 33.9366 11.8333 34.3011C11.8333 34.6657 11.7753 35.0043 11.6593 35.3168C11.5433 35.6293 11.3646 35.8814 11.1231 36.0732Z" fill="#CFD1DE"/>
<path d="M13.9507 31.5455V37H14.7888V33.5909C14.7888 33.3234 14.8456 33.0878 14.9592 32.8842C15.0752 32.6783 15.2267 32.5173 15.4138 32.4013C15.6032 32.2853 15.8068 32.2273 16.0246 32.2273C16.3418 32.2273 16.601 32.3232 16.8023 32.5149C17.0035 32.7043 17.1041 32.9541 17.1041 33.2642V37H17.9564V33.4489C17.9564 33.0961 18.0617 32.8049 18.2724 32.5753C18.4831 32.3433 18.7802 32.2273 19.1638 32.2273C19.4621 32.2273 19.7213 32.3137 19.9415 32.4865C20.1616 32.6593 20.2717 32.947 20.2717 33.3494V37H21.1098V33.3494C21.1098 32.7079 20.9547 32.2356 20.6446 31.9325C20.3345 31.6271 19.9355 31.4744 19.4479 31.4744C19.0572 31.4744 18.7222 31.5585 18.4429 31.7266C18.1635 31.8923 17.954 32.116 17.8143 32.3977H17.7575C17.6226 32.1065 17.4344 31.8804 17.1929 31.7195C16.9538 31.5561 16.6543 31.4744 16.2944 31.4744C15.9393 31.4744 15.6351 31.5561 15.3818 31.7195C15.1285 31.8804 14.945 32.1065 14.8314 32.3977H14.7604V31.5455H13.9507Z" fill="#CFD1DE"/>
<path fill-rule="evenodd" clip-rule="evenodd" d="M23.5689 36.7656C23.9501 36.9976 24.4035 37.1136 24.929 37.1136C25.2984 37.1136 25.631 37.0568 25.9269 36.9432C26.2228 36.8272 26.4714 36.6662 26.6726 36.4602C26.8739 36.2519 27.0171 36.0104 27.1023 35.7358L26.2927 35.5085C26.2216 35.6979 26.121 35.8565 25.9908 35.9844C25.8606 36.1098 25.7055 36.2045 25.5256 36.2685C25.3481 36.33 25.1492 36.3608 24.929 36.3608C24.5905 36.3608 24.2934 36.2874 24.0377 36.1406C23.782 35.9915 23.582 35.7749 23.4376 35.4908C23.3088 35.231 23.2384 34.9197 23.2263 34.5568H27.1876V34.2017C27.1876 33.6927 27.1201 33.2642 26.9851 32.9162C26.8502 32.5682 26.6691 32.2888 26.4418 32.0781C26.2145 31.8651 25.9624 31.7112 25.6854 31.6165C25.4084 31.5218 25.1279 31.4744 24.8438 31.4744C24.3514 31.4744 23.9205 31.5952 23.5512 31.8366C23.1842 32.0758 22.8978 32.4096 22.6918 32.8381C22.4882 33.2642 22.3864 33.7566 22.3864 34.3153C22.3864 34.8741 22.4882 35.3641 22.6918 35.7855C22.8978 36.2045 23.1902 36.5312 23.5689 36.7656ZM23.2285 33.8324C23.2444 33.5794 23.3082 33.3403 23.4198 33.1151C23.55 32.8523 23.7359 32.6392 23.9773 32.4759C24.2212 32.3101 24.51 32.2273 24.8438 32.2273C25.1468 32.2273 25.4096 32.2971 25.6322 32.4368C25.8571 32.5765 26.0299 32.767 26.1506 33.0085C26.2737 33.25 26.3353 33.5246 26.3353 33.8324H23.2285Z" fill="#CFD1DE"/>
</svg>
