<svg width="6" height="12" viewBox="0 0 6 12" fill="none" xmlns="http://www.w3.org/2000/svg">
<path fill-rule="evenodd" clip-rule="evenodd" d="M2.36151 1.23921C2.36151 0.940983 2.60327 0.699219 2.9015 0.699219C3.19973 0.699219 3.4415 0.940982 3.4415 1.23921V1.79338C4.56864 2.02855 5.41749 3.0606 5.41749 4.29815C5.41749 4.74651 5.06682 5.10997 4.63426 5.10997C4.20169 5.10997 3.85102 4.74651 3.85102 4.29815C3.85102 3.78374 3.44869 3.36673 2.9524 3.36673C2.4561 3.36673 2.05378 3.78374 2.05378 4.29815C2.05378 4.81256 2.4561 5.22957 2.9524 5.22957C2.96235 5.22957 2.97225 5.22976 2.98211 5.23014C4.33003 5.24643 5.41788 6.38405 5.41788 7.78503C5.41788 9.02272 4.56882 10.0549 3.44149 10.2899L3.44149 10.8917C3.44149 11.1899 3.19972 11.4317 2.90149 11.4317C2.60326 11.4317 2.3615 11.1899 2.3615 10.8917L2.3615 10.2661C1.28563 9.99158 0.48769 8.98489 0.48769 7.78502C0.48769 7.33667 0.838356 6.97321 1.27093 6.97321C1.70349 6.97321 2.05416 7.33667 2.05416 7.78503C2.05416 8.29943 2.45649 8.71644 2.95278 8.71644C3.44908 8.71644 3.85141 8.29943 3.85141 7.78503C3.85141 7.27062 3.44908 6.85361 2.95278 6.85361C2.94283 6.85361 2.93293 6.85342 2.92307 6.85303C1.57515 6.83675 0.487305 5.69913 0.487305 4.29815C0.487305 3.09814 1.28544 2.09135 2.36151 1.81697V1.23921Z" fill="#55B3FF"/>
</svg>
