<svg width="37" height="36" viewBox="0 0 37 36" fill="none" xmlns="http://www.w3.org/2000/svg">
<path fill-rule="evenodd" clip-rule="evenodd" d="M10.2958 0.304688C8.06457 0.304688 6.2558 2.11346 6.2558 4.34469V18.5107C6.2558 20.742 8.06457 22.5507 10.2958 22.5507H26.4192C28.6504 22.5507 30.4592 20.742 30.4592 18.5107V8.29538C30.4592 6.06415 28.6504 4.25538 26.4192 4.25538H9.76984C9.21218 4.25538 8.7601 3.80331 8.7601 3.24565C8.7601 3.18009 8.75386 3.11599 8.74193 3.05392C9.11246 2.60835 9.671 2.32469 10.2958 2.32469H27.4531C28.0109 2.32469 28.4631 1.8725 28.4631 1.31469C28.4631 0.75688 28.0109 0.304688 27.4531 0.304688H10.2958ZM8.2758 18.5107V5.882C8.7167 6.13239 9.22657 6.27538 9.76984 6.27538H26.4192C27.5348 6.27538 28.4392 7.17977 28.4392 8.29538V18.5107C28.4392 19.6264 27.5348 20.5307 26.4192 20.5307H10.2958C9.18019 20.5307 8.2758 19.6264 8.2758 18.5107Z" fill="#CFD1DE"/>
<path fill-rule="evenodd" clip-rule="evenodd" d="M0.141602 27.997V35.2698H2.76944C3.34236 35.2698 3.80756 35.1845 4.16504 35.0141C4.52252 34.8436 4.78412 34.6128 4.94984 34.3216C5.11556 34.0304 5.19842 33.7025 5.19842 33.3379C5.19842 32.9544 5.12266 32.6301 4.97115 32.3649C4.81963 32.0998 4.63142 31.8962 4.40652 31.7541C4.18161 31.6121 3.95789 31.534 3.73535 31.5198V31.4487C3.94368 31.3919 4.13663 31.3043 4.31419 31.186C4.49411 31.0676 4.63852 30.9066 4.74743 30.703C4.85869 30.4994 4.91433 30.2414 4.91433 29.9289C4.91433 29.5737 4.83384 29.2506 4.67285 28.9594C4.51187 28.6658 4.26684 28.4326 3.93777 28.2598C3.60869 28.0846 3.19084 27.997 2.68422 27.997H0.141602ZM2.76944 34.4885H1.02228V31.9601H2.81206C3.12929 31.9601 3.40391 32.024 3.63592 32.1519C3.86793 32.2773 4.04667 32.4454 4.17214 32.6561C4.29761 32.8645 4.36035 33.0917 4.36035 33.3379C4.36035 33.6576 4.23843 33.9298 3.99458 34.1547C3.75311 34.3772 3.34473 34.4885 2.76944 34.4885ZM2.65581 31.1931H1.02228V28.7783H2.68422C3.16717 28.7783 3.51992 28.8907 3.74245 29.1156C3.96499 29.3382 4.07626 29.6093 4.07626 29.9289C4.07626 30.1845 4.01234 30.4071 3.8845 30.5965C3.75903 30.7859 3.58857 30.9326 3.37314 31.0368C3.16007 31.141 2.92096 31.1931 2.65581 31.1931Z" fill="#CFD1DE"/>
<path d="M6.53187 29.8152V35.2698H7.36994V29.8152H6.53187Z" fill="#CFD1DE"/>
<path d="M6.53542 28.7392C6.65379 28.8505 6.79466 28.9061 6.95801 28.9061C7.12136 28.9061 7.26104 28.8505 7.37704 28.7392C7.49541 28.628 7.5546 28.4942 7.5546 28.3379C7.5546 28.1817 7.49541 28.0479 7.37704 27.9367C7.26104 27.8254 7.12136 27.7698 6.95801 27.7698C6.79466 27.7698 6.65379 27.8254 6.53542 27.9367C6.41942 28.0479 6.36142 28.1817 6.36142 28.3379C6.36142 28.4942 6.41942 28.628 6.53542 28.7392Z" fill="#CFD1DE"/>
<path d="M9.74299 35.2698V27.997H8.90492V35.2698H9.74299Z" fill="#CFD1DE"/>
<path d="M12.116 35.2698V27.997H11.278V35.2698H12.116Z" fill="#CFD1DE"/>
<path fill-rule="evenodd" clip-rule="evenodd" d="M14.5779 35.0354C14.959 35.2674 15.4124 35.3834 15.9379 35.3834C16.3073 35.3834 16.6399 35.3266 16.9358 35.2129C17.2317 35.0969 17.4803 34.936 17.6816 34.73C17.8828 34.5217 18.026 34.2802 18.1112 34.0056L17.3016 33.7783C17.2306 33.9677 17.1299 34.1263 16.9997 34.2541C16.8695 34.3796 16.7145 34.4743 16.5345 34.5382C16.357 34.5998 16.1581 34.6306 15.9379 34.6306C15.5994 34.6306 15.3023 34.5572 15.0466 34.4104C14.7909 34.2612 14.5909 34.0446 14.4465 33.7605C14.3177 33.5008 14.2473 33.1895 14.2353 32.8266H18.1965V32.4715C18.1965 31.9625 18.129 31.534 17.9941 31.186C17.8591 30.8379 17.678 30.5586 17.4507 30.3479C17.2235 30.1348 16.9713 29.9809 16.6943 29.8862C16.4173 29.7915 16.1368 29.7442 15.8527 29.7442C15.3603 29.7442 14.9294 29.8649 14.5601 30.1064C14.1932 30.3455 13.9067 30.6793 13.7007 31.1078C13.4971 31.534 13.3953 32.0264 13.3953 32.5851C13.3953 33.1438 13.4971 33.6339 13.7007 34.0553C13.9067 34.4743 14.1991 34.801 14.5779 35.0354ZM14.2374 32.1022C14.2534 31.8491 14.3171 31.61 14.4287 31.3848C14.5589 31.122 14.7448 30.909 14.9862 30.7456C15.2301 30.5799 15.5189 30.497 15.8527 30.497C16.1557 30.497 16.4185 30.5669 16.6411 30.7066C16.866 30.8462 17.0388 31.0368 17.1595 31.2783C17.2826 31.5198 17.3442 31.7944 17.3442 32.1022H14.2374Z" fill="#CFD1DE"/>
<path d="M21.8435 30.5254V29.8152H20.6787V28.5084H19.8406V29.8152H19.0168V30.5254H19.8406V33.9345C19.8406 34.2518 19.914 34.5146 20.0608 34.7229C20.21 34.9312 20.397 35.0863 20.6219 35.1881C20.8492 35.2899 21.0812 35.3408 21.3179 35.3408C21.4742 35.3408 21.6032 35.329 21.705 35.3053C21.8068 35.284 21.8861 35.2627 21.9429 35.2414L21.7725 34.4885L21.6304 34.5169C21.5712 34.5264 21.4955 34.5311 21.4031 34.5311C21.28 34.5311 21.1628 34.5122 21.0516 34.4743C20.9427 34.4341 20.8527 34.3559 20.7817 34.2399C20.713 34.1216 20.6787 33.944 20.6787 33.7073V30.5254H21.8435Z" fill="#CFD1DE"/>
<path fill-rule="evenodd" clip-rule="evenodd" d="M23.9724 35.0354C24.3535 35.2674 24.8069 35.3834 25.3325 35.3834C25.7018 35.3834 26.0344 35.3266 26.3303 35.2129C26.6263 35.0969 26.8749 34.936 27.0761 34.73C27.2773 34.5217 27.4205 34.2802 27.5058 34.0056L26.6961 33.7783C26.6251 33.9677 26.5245 34.1263 26.3943 34.2541C26.2641 34.3796 26.109 34.4743 25.9291 34.5382C25.7515 34.5998 25.5526 34.6306 25.3325 34.6306C24.9939 34.6306 24.6968 34.5572 24.4411 34.4104C24.1855 34.2612 23.9854 34.0446 23.841 33.7605C23.7122 33.5008 23.6418 33.1895 23.6298 32.8266H27.591V32.4715C27.591 31.9625 27.5235 31.534 27.3886 31.186C27.2536 30.8379 27.0725 30.5586 26.8453 30.3479C26.618 30.1348 26.3659 29.9809 26.0889 29.8862C25.8119 29.7915 25.5313 29.7442 25.2472 29.7442C24.7548 29.7442 24.324 29.8649 23.9546 30.1064C23.5877 30.3455 23.3012 30.6793 23.0953 31.1078C22.8917 31.534 22.7899 32.0264 22.7899 32.5851C22.7899 33.1438 22.8917 33.6339 23.0953 34.0553C23.3012 34.4743 23.5936 34.801 23.9724 35.0354ZM23.6319 32.1022C23.6479 31.8491 23.7117 31.61 23.8232 31.3848C23.9535 31.122 24.1393 30.909 24.3808 30.7456C24.6246 30.5799 24.9134 30.497 25.2472 30.497C25.5503 30.497 25.8131 30.5669 26.0356 30.7066C26.2605 30.8462 26.4333 31.0368 26.5541 31.2783C26.6772 31.5198 26.7387 31.7944 26.7387 32.1022H23.6319Z" fill="#CFD1DE"/>
<path d="M28.8659 29.8152V35.2698H29.7039V31.8181C29.7039 31.5718 29.7631 31.3529 29.8815 31.1611C30.0022 30.967 30.1656 30.8155 30.3715 30.7066C30.5799 30.5953 30.8166 30.5397 31.0818 30.5397C31.193 30.5397 31.2984 30.5479 31.3978 30.5645C31.4996 30.5787 31.5647 30.5894 31.5931 30.5965V29.7442C31.5458 29.7395 31.4759 29.7359 31.3836 29.7335C31.2913 29.7312 31.2143 29.73 31.1528 29.73C30.8261 29.73 30.5325 29.814 30.2721 29.9821C30.0117 30.1502 29.8318 30.3692 29.7323 30.6391H29.6755V29.8152H28.8659Z" fill="#CFD1DE"/>
<path fill-rule="evenodd" clip-rule="evenodd" d="M33.2506 35.2023C33.5323 35.3325 33.846 35.3976 34.1917 35.3976C34.5089 35.3976 34.7776 35.3503 34.9978 35.2556C35.218 35.1609 35.3943 35.046 35.5269 34.9111C35.6595 34.7762 35.7542 34.6495 35.811 34.5311H35.8536V35.2698H36.6917V31.676C36.6917 31.2428 36.6207 30.8971 36.4786 30.6391C36.3366 30.381 36.1578 30.1881 35.9424 30.0602C35.7293 29.9324 35.508 29.8484 35.2783 29.8081C35.051 29.7655 34.8498 29.7442 34.6746 29.7442C34.4 29.7442 34.1207 29.7821 33.8366 29.8578C33.5548 29.9312 33.2944 30.0614 33.0553 30.2485C32.8186 30.4331 32.6292 30.6912 32.4871 31.0226L33.2826 31.3067C33.3749 31.1078 33.5347 30.9208 33.762 30.7456C33.9893 30.5704 34.3029 30.4828 34.703 30.4828C35.0889 30.4828 35.3766 30.5799 35.566 30.774C35.7577 30.9682 35.8536 31.2404 35.8536 31.5908V31.6192C35.8536 31.7541 35.8051 31.8488 35.708 31.9033C35.6133 31.9577 35.4618 31.9968 35.2535 32.0205C35.0475 32.0418 34.7788 32.0737 34.4474 32.1164C34.194 32.1495 33.9419 32.1945 33.691 32.2513C33.4424 32.3058 33.2151 32.3886 33.0091 32.4999C32.8032 32.6111 32.6386 32.765 32.5155 32.9615C32.3924 33.1557 32.3309 33.409 32.3309 33.7215C32.3309 34.0766 32.4137 34.3796 32.5795 34.6306C32.7452 34.8791 32.9689 35.0697 33.2506 35.2023ZM35.1576 34.4495C34.9303 34.5797 34.651 34.6448 34.3195 34.6448C33.9857 34.6448 33.7099 34.5714 33.4921 34.4246C33.2767 34.2754 33.1689 34.0553 33.1689 33.7641C33.1689 33.551 33.2258 33.3829 33.3394 33.2598C33.4554 33.1343 33.6069 33.0408 33.7939 32.9793C33.9833 32.9154 34.1869 32.8692 34.4047 32.8408C34.4947 32.829 34.6119 32.8147 34.7563 32.7982C34.9031 32.7792 35.0534 32.7579 35.2073 32.7343C35.3635 32.7082 35.5009 32.6786 35.6192 32.6455C35.74 32.61 35.8181 32.5709 35.8536 32.5283V33.2953C35.8536 33.5226 35.7944 33.7392 35.676 33.9452C35.56 34.1512 35.3872 34.3192 35.1576 34.4495Z" fill="#CFD1DE"/>
</svg>
