<svg width="38" height="36" viewBox="0 0 38 36" fill="none" xmlns="http://www.w3.org/2000/svg">
<path fill-rule="evenodd" clip-rule="evenodd" d="M10.9384 0.732422C8.70715 0.732422 6.89838 2.54119 6.89838 4.77242V18.9385C6.89838 21.1697 8.70715 22.9785 10.9384 22.9785H27.0618C29.293 22.9785 31.1018 21.1697 31.1018 18.9385V8.72312C31.1018 6.49188 29.293 4.68312 27.0618 4.68312H10.4124C9.85475 4.68312 9.40268 4.23104 9.40268 3.67338C9.40268 3.60782 9.39643 3.54373 9.38451 3.48165C9.75504 3.03609 10.3136 2.75242 10.9384 2.75242H28.0957C28.6535 2.75242 29.1057 2.30023 29.1057 1.74242C29.1057 1.18461 28.6535 0.732422 28.0957 0.732422H10.9384ZM8.91838 18.9385V6.30973C9.35927 6.56013 9.86915 6.70312 10.4124 6.70312H27.0618C28.1774 6.70312 29.0818 7.6075 29.0818 8.72312V18.9385C29.0818 20.0541 28.1774 20.9585 27.0618 20.9585H10.9384C9.82277 20.9585 8.91838 20.0541 8.91838 18.9385Z" fill="#CFD1DE"/>
<path fill-rule="evenodd" clip-rule="evenodd" d="M0.78418 28.4248V35.6975H3.41202C3.98494 35.6975 4.45014 35.6123 4.80762 35.4418C5.1651 35.2714 5.4267 35.0405 5.59242 34.7493C5.75814 34.4582 5.841 34.1303 5.841 33.7657C5.841 33.3822 5.76524 33.0578 5.61373 32.7927C5.46221 32.5275 5.274 32.3239 5.04909 32.1819C4.82419 32.0398 4.60047 31.9617 4.37793 31.9475V31.8765C4.58626 31.8197 4.77921 31.7321 4.95677 31.6137C5.13669 31.4953 5.2811 31.3343 5.39 31.1307C5.50127 30.9271 5.55691 30.6691 5.55691 30.3566C5.55691 30.0015 5.47641 29.6783 5.31543 29.3871C5.15445 29.0936 4.90942 28.8604 4.58034 28.6876C4.25127 28.5124 3.83342 28.4248 3.32679 28.4248H0.78418ZM3.41202 34.9163H1.66486V32.3878H3.45463C3.77187 32.3878 4.04649 32.4518 4.2785 32.5796C4.51051 32.7051 4.68925 32.8732 4.81472 33.0839C4.94019 33.2922 5.00293 33.5195 5.00293 33.7657C5.00293 34.0853 4.88101 34.3575 4.63716 34.5824C4.39569 34.805 3.9873 34.9163 3.41202 34.9163ZM3.29838 31.6208H1.66486V29.206H3.32679C3.80975 29.206 4.16249 29.3185 4.38503 29.5434C4.60757 29.7659 4.71884 30.037 4.71884 30.3566C4.71884 30.6123 4.65492 30.8348 4.52708 31.0242C4.4016 31.2136 4.23115 31.3604 4.01571 31.4645C3.80265 31.5687 3.56354 31.6208 3.29838 31.6208Z" fill="#CFD1DE"/>
<path d="M7.17445 30.243V35.6975H8.01252V30.243H7.17445Z" fill="#CFD1DE"/>
<path d="M7.178 29.167C7.29637 29.2782 7.43723 29.3339 7.60059 29.3339C7.76394 29.3339 7.90362 29.2782 8.01962 29.167C8.13799 29.0557 8.19718 28.9219 8.19718 28.7657C8.19718 28.6094 8.13799 28.4757 8.01962 28.3644C7.90362 28.2531 7.76394 28.1975 7.60059 28.1975C7.43723 28.1975 7.29637 28.2531 7.178 28.3644C7.062 28.4757 7.00399 28.6094 7.00399 28.7657C7.00399 28.9219 7.062 29.0557 7.178 29.167Z" fill="#CFD1DE"/>
<path d="M10.3856 35.6975V28.4248H9.5475V35.6975H10.3856Z" fill="#CFD1DE"/>
<path d="M12.7586 35.6975V28.4248H11.9205V35.6975H12.7586Z" fill="#CFD1DE"/>
<path fill-rule="evenodd" clip-rule="evenodd" d="M15.2204 35.4631C15.6016 35.6951 16.055 35.8111 16.5805 35.8111C16.9498 35.8111 17.2825 35.7543 17.5784 35.6407C17.8743 35.5247 18.1229 35.3637 18.3241 35.1577C18.5254 34.9494 18.6686 34.7079 18.7538 34.4333L17.9442 34.206C17.8731 34.3954 17.7725 34.554 17.6423 34.6819C17.5121 34.8074 17.357 34.902 17.1771 34.966C16.9996 35.0275 16.8007 35.0583 16.5805 35.0583C16.242 35.0583 15.9449 34.9849 15.6892 34.8381C15.4335 34.689 15.2335 34.4724 15.089 34.1883C14.9602 33.9285 14.8898 33.6172 14.8778 33.2543H18.839V32.8992C18.839 32.3902 18.7716 31.9617 18.6366 31.6137C18.5017 31.2657 18.3206 30.9863 18.0933 30.7756C17.866 30.5626 17.6139 30.4087 17.3369 30.314C17.0599 30.2193 16.7794 30.1719 16.4953 30.1719C16.0029 30.1719 15.572 30.2927 15.2027 30.5341C14.8357 30.7733 14.5493 31.1071 14.3433 31.5356C14.1397 31.9617 14.0379 32.4541 14.0379 33.0128C14.0379 33.5716 14.1397 34.0616 14.3433 34.483C14.5493 34.902 14.8416 35.2288 15.2204 35.4631ZM14.88 32.5299C14.8959 32.2769 14.9597 32.0378 15.0713 31.8126C15.2015 31.5498 15.3873 31.3367 15.6288 31.1734C15.8727 31.0076 16.1615 30.9248 16.4953 30.9248C16.7983 30.9248 17.0611 30.9946 17.2836 31.1343C17.5086 31.274 17.6814 31.4645 17.8021 31.706C17.9252 31.9475 17.9868 32.2221 17.9868 32.5299H14.88Z" fill="#CFD1DE"/>
<path d="M22.4861 30.9532V30.243H21.3213V28.9361H20.4832V30.243H19.6594V30.9532H20.4832V34.3623C20.4832 34.6795 20.5566 34.9423 20.7034 35.1506C20.8525 35.359 21.0396 35.514 21.2645 35.6158C21.4917 35.7176 21.7238 35.7685 21.9605 35.7685C22.1167 35.7685 22.2458 35.7567 22.3476 35.733C22.4494 35.7117 22.5287 35.6904 22.5855 35.6691L22.415 34.9163L22.273 34.9447C22.2138 34.9541 22.1381 34.9589 22.0457 34.9589C21.9226 34.9589 21.8054 34.9399 21.6942 34.902C21.5853 34.8618 21.4953 34.7837 21.4243 34.6677C21.3556 34.5493 21.3213 34.3717 21.3213 34.135V30.9532H22.4861Z" fill="#CFD1DE"/>
<path fill-rule="evenodd" clip-rule="evenodd" d="M24.615 35.4631C24.9961 35.6951 25.4495 35.8111 25.9751 35.8111C26.3444 35.8111 26.677 35.7543 26.9729 35.6407C27.2689 35.5247 27.5174 35.3637 27.7187 35.1577C27.9199 34.9494 28.0631 34.7079 28.1483 34.4333L27.3387 34.206C27.2677 34.3954 27.1671 34.554 27.0368 34.6819C26.9066 34.8074 26.7516 34.902 26.5716 34.966C26.3941 35.0275 26.1952 35.0583 25.9751 35.0583C25.6365 35.0583 25.3394 34.9849 25.0837 34.8381C24.828 34.689 24.628 34.4724 24.4836 34.1883C24.3548 33.9285 24.2844 33.6172 24.2724 33.2543H28.2336V32.8992C28.2336 32.3902 28.1661 31.9617 28.0312 31.6137C27.8962 31.2657 27.7151 30.9863 27.4878 30.7756C27.2606 30.5626 27.0084 30.4087 26.7314 30.314C26.4545 30.2193 26.1739 30.1719 25.8898 30.1719C25.3974 30.1719 24.9665 30.2927 24.5972 30.5341C24.2303 30.7733 23.9438 31.1071 23.7378 31.5356C23.5342 31.9617 23.4324 32.4541 23.4324 33.0128C23.4324 33.5716 23.5342 34.0616 23.7378 34.483C23.9438 34.902 24.2362 35.2288 24.615 35.4631ZM24.2745 32.5299C24.2905 32.2769 24.3542 32.0378 24.4658 31.8126C24.596 31.5498 24.7819 31.3367 25.0233 31.1734C25.2672 31.0076 25.556 30.9248 25.8898 30.9248C26.1929 30.9248 26.4556 30.9946 26.6782 31.1343C26.9031 31.274 27.0759 31.4645 27.1966 31.706C27.3197 31.9475 27.3813 32.2221 27.3813 32.5299H24.2745Z" fill="#CFD1DE"/>
<path d="M29.5084 30.243V35.6975H30.3465V32.2458C30.3465 31.9996 30.4057 31.7806 30.5241 31.5888C30.6448 31.3947 30.8081 31.2432 31.0141 31.1343C31.2224 31.023 31.4592 30.9674 31.7243 30.9674C31.8356 30.9674 31.941 30.9757 32.0404 30.9922C32.1422 31.0064 32.2073 31.0171 32.2357 31.0242V30.1719C32.1884 30.1672 32.1185 30.1636 32.0262 30.1613C31.9339 30.1589 31.8569 30.1577 31.7954 30.1577C31.4687 30.1577 31.1751 30.2418 30.9147 30.4099C30.6543 30.5779 30.4743 30.7969 30.3749 31.0668H30.3181V30.243H29.5084Z" fill="#CFD1DE"/>
<path fill-rule="evenodd" clip-rule="evenodd" d="M33.8932 35.63C34.1749 35.7602 34.4886 35.8253 34.8343 35.8253C35.1515 35.8253 35.4202 35.778 35.6404 35.6833C35.8605 35.5886 36.0369 35.4738 36.1695 35.3388C36.3021 35.2039 36.3968 35.0772 36.4536 34.9589H36.4962V35.6975H37.3343V32.1038C37.3343 31.6705 37.2632 31.3249 37.1212 31.0668C36.9791 30.8088 36.8004 30.6158 36.585 30.488C36.3719 30.3601 36.1505 30.2761 35.9209 30.2359C35.6936 30.1932 35.4924 30.1719 35.3172 30.1719C35.0426 30.1719 34.7632 30.2098 34.4791 30.2856C34.1974 30.359 33.937 30.4892 33.6979 30.6762C33.4611 30.8609 33.2718 31.1189 33.1297 31.4503L33.9252 31.7344C34.0175 31.5356 34.1773 31.3485 34.4046 31.1734C34.6318 30.9982 34.9455 30.9106 35.3456 30.9106C35.7315 30.9106 36.0191 31.0076 36.2085 31.2018C36.4003 31.3959 36.4962 31.6681 36.4962 32.0185V32.0469C36.4962 32.1819 36.4477 32.2766 36.3506 32.331C36.2559 32.3855 36.1044 32.4245 35.896 32.4482C35.6901 32.4695 35.4214 32.5015 35.0899 32.5441C34.8366 32.5772 34.5845 32.6222 34.3335 32.679C34.085 32.7335 33.8577 32.8163 33.6517 32.9276C33.4458 33.0389 33.2812 33.1928 33.1581 33.3893C33.035 33.5834 32.9735 33.8367 32.9735 34.1492C32.9735 34.5043 33.0563 34.8074 33.222 35.0583C33.3878 35.3069 33.6115 35.4975 33.8932 35.63ZM35.8002 34.8772C35.5729 35.0074 35.2935 35.0725 34.9621 35.0725C34.6283 35.0725 34.3525 34.9991 34.1347 34.8523C33.9192 34.7032 33.8115 34.483 33.8115 34.1918C33.8115 33.9787 33.8683 33.8107 33.982 33.6876C34.098 33.5621 34.2495 33.4686 34.4365 33.407C34.6259 33.3431 34.8295 33.2969 35.0473 33.2685C35.1373 33.2567 35.2545 33.2425 35.3989 33.2259C35.5457 33.207 35.696 33.1857 35.8499 33.162C36.0061 33.1359 36.1434 33.1064 36.2618 33.0732C36.3825 33.0377 36.4607 32.9986 36.4962 32.956V33.7231C36.4962 33.9503 36.437 34.167 36.3186 34.3729C36.2026 34.5789 36.0298 34.747 35.8002 34.8772Z" fill="#CFD1DE"/>
</svg>
