<svg width="38" height="63" viewBox="0 0 38 63" fill="none" xmlns="http://www.w3.org/2000/svg">
<g style="mix-blend-mode:overlay" filter="url(#filter0_f_2060_11151)">
<path fill-rule="evenodd" clip-rule="evenodd" d="M12.0671 39.5428C11.5774 39.0193 11.1682 38.3791 10.8685 37.6313C9.55375 34.3513 8.59326 30.0377 8.08433 26.015C7.60035 22.1895 7.37153 17.4744 8.23653 13.646C9.13122 9.68624 12.5853 6.92288 15.9515 7.47388C17.0451 7.65287 17.9948 8.15962 18.7481 8.89805C20.1566 6.40312 22.6685 4.83229 25.2019 5.13239C28.5767 5.53215 30.7117 9.10057 29.9706 13.1027C29.9707 13.1023 29.9707 13.1024 29.9705 13.1032C29.9688 13.1144 29.9474 13.2489 29.935 13.5317C29.9222 13.824 29.9219 14.2028 29.9432 14.6668C29.9862 15.6032 30.1087 16.7128 30.303 17.8914C30.7087 20.352 31.3185 22.474 31.7446 23.4612C33.2182 26.8748 31.8794 31.3663 28.7541 33.4932C28.0466 33.9748 27.3081 34.2939 26.5718 34.4597C26.3366 36.5824 26.0343 39.1302 25.5902 41.3358C24.8285 45.1185 23.3916 49.6991 20.0064 53.2664L15.4736 58.0431L5.64567 48.1106L10.1785 43.3338C10.919 42.5535 11.5545 41.3474 12.0671 39.5428Z" fill="#353535" fill-opacity="0.37"/>
</g>
<defs>
<filter id="filter0_f_2060_11151" x="0.896574" y="0.348723" width="36.1961" height="62.4432" filterUnits="userSpaceOnUse" color-interpolation-filters="sRGB">
<feFlood flood-opacity="0" result="BackgroundImageFix"/>
<feBlend mode="normal" in="SourceGraphic" in2="BackgroundImageFix" result="shape"/>
<feGaussianBlur stdDeviation="2.37447" result="effect1_foregroundBlur_2060_11151"/>
</filter>
</defs>
</svg>
