<svg width="24" height="37" viewBox="0 0 24 37" fill="none" xmlns="http://www.w3.org/2000/svg">
<path fill-rule="evenodd" clip-rule="evenodd" d="M6.52869 6.07954C6.52869 2.72837 9.24534 0.0117188 12.5965 0.0117188C15.9477 0.0117188 18.6643 2.72837 18.6643 6.07954C18.6643 9.4307 15.9477 12.1474 12.5965 12.1474C9.24534 12.1474 6.52869 9.4307 6.52869 6.07954ZM12.5965 2.03432C10.3624 2.03432 8.55129 3.84543 8.55129 6.07954C8.55129 8.31364 10.3624 10.1247 12.5965 10.1247C14.8306 10.1247 16.6417 8.31364 16.6417 6.07954C16.6417 3.84543 14.8306 2.03432 12.5965 2.03432Z" fill="#CFD1DE"/>
<path d="M12.5965 16.6982C10.1852 16.6982 7.90117 17.2365 6.34473 17.7185C5.46799 17.9901 4.82297 18.7845 4.66519 19.7988L4.49406 20.8989C4.40821 21.4508 3.89122 21.8286 3.33933 21.7427C2.78745 21.6569 2.40964 21.1399 2.49549 20.588L2.66662 19.4879C2.926 17.8204 4.03058 16.3179 5.74632 15.7865C7.4094 15.2714 9.90778 14.6756 12.5965 14.6756C15.2852 14.6756 17.7836 15.2714 19.4467 15.7865C21.1624 16.3179 22.267 17.8204 22.5264 19.4879L22.6975 20.588C22.7834 21.1399 22.4056 21.6569 21.8537 21.7427C21.3018 21.8286 20.7848 21.4508 20.6989 20.8989L20.5278 19.7988C20.37 18.7845 19.725 17.9901 18.8483 17.7185C17.2918 17.2365 15.0078 16.6982 12.5965 16.6982Z" fill="#CFD1DE"/>
<path fill-rule="evenodd" clip-rule="evenodd" d="M0.216553 28.7277V36.0004H1.09723V33.3442H2.68814C3.25396 33.3442 3.71797 33.2412 4.08019 33.0352C4.44241 32.8269 4.70992 32.5475 4.88275 32.1971C5.05794 31.8468 5.14553 31.4573 5.14553 31.0288C5.14553 30.6003 5.05794 30.2121 4.88275 29.8641C4.70756 29.516 4.43767 29.2402 4.07309 29.0366C3.71087 28.8307 3.24449 28.7277 2.67394 28.7277H0.216553ZM1.09723 32.5629H2.65973C3.05036 32.5629 3.36404 32.4954 3.60079 32.3605C3.83753 32.2256 4.00917 32.0433 4.1157 31.8136C4.2246 31.5816 4.27905 31.32 4.27905 31.0288C4.27905 30.7376 4.2246 30.4772 4.1157 30.2476C4.00917 30.0179 3.83634 29.838 3.59723 29.7078C3.35812 29.5752 3.04089 29.5089 2.64553 29.5089H1.09723V32.5629Z" fill="#CFD1DE"/>
<path fill-rule="evenodd" clip-rule="evenodd" d="M7.31883 35.766C7.69998 35.998 8.15334 36.1141 8.67891 36.1141C9.04823 36.1141 9.38085 36.0572 9.67678 35.9436C9.97271 35.8276 10.2213 35.6666 10.4225 35.4606C10.6237 35.2523 10.767 35.0108 10.8522 34.7362L10.0425 34.5089C9.97152 34.6983 9.87091 34.8569 9.7407 34.9848C9.61049 35.1103 9.45543 35.205 9.2755 35.2689C9.09795 35.3304 8.89908 35.3612 8.67891 35.3612C8.34037 35.3612 8.04326 35.2878 7.78758 35.141C7.53189 34.9919 7.33185 34.7753 7.18743 34.4912C7.05864 34.2314 6.98823 33.9201 6.97622 33.5572H10.9374V33.2021C10.9374 32.6931 10.87 32.2646 10.735 31.9166C10.6001 31.5686 10.419 31.2892 10.1917 31.0785C9.96442 30.8655 9.71229 30.7116 9.4353 30.6169C9.15831 30.5222 8.87777 30.4748 8.59368 30.4748C8.10126 30.4748 7.67039 30.5956 7.30107 30.8371C6.93412 31.0762 6.64766 31.41 6.44169 31.8385C6.2381 32.2646 6.1363 32.757 6.1363 33.3158C6.1363 33.8745 6.2381 34.3645 6.44169 34.7859C6.64766 35.205 6.94004 35.5317 7.31883 35.766ZM6.97836 32.8328C6.99432 32.5798 7.05809 32.3407 7.16968 32.1155C7.29989 31.8527 7.48573 31.6396 7.72721 31.4763C7.97105 31.3105 8.25988 31.2277 8.59368 31.2277C8.89671 31.2277 9.1595 31.2975 9.38204 31.4372C9.60694 31.5769 9.77976 31.7675 9.9005 32.0089C10.0236 32.2504 10.0852 32.525 10.0852 32.8328H6.97836Z" fill="#CFD1DE"/>
<path d="M12.2123 30.5459V36.0004H13.0504V32.5487C13.0504 32.3025 13.1095 32.0835 13.2279 31.8918C13.3487 31.6976 13.512 31.5461 13.718 31.4372C13.9263 31.3259 14.163 31.2703 14.4282 31.2703C14.5395 31.2703 14.6448 31.2786 14.7443 31.2952C14.8461 31.3094 14.9112 31.32 14.9396 31.3271V30.4748C14.8922 30.4701 14.8224 30.4666 14.73 30.4642C14.6377 30.4618 14.5608 30.4606 14.4992 30.4606C14.1725 30.4606 13.879 30.5447 13.6185 30.7128C13.3581 30.8809 13.1782 31.0998 13.0788 31.3697H13.022V30.5459H12.2123Z" fill="#CFD1DE"/>
<path d="M18.7038 31.2561V30.5459H17.4822V29.9919C17.4822 29.722 17.5425 29.5172 17.6633 29.3775C17.7864 29.2379 17.9864 29.168 18.2634 29.168C18.3842 29.168 18.4812 29.1787 18.5546 29.2C18.6304 29.2213 18.6896 29.2391 18.7322 29.2533L18.9737 28.5288C18.9097 28.5004 18.8127 28.4696 18.6825 28.4365C18.5523 28.4034 18.3842 28.3868 18.1782 28.3868C17.9178 28.3868 17.6704 28.4389 17.436 28.543C17.2016 28.6472 17.0111 28.8034 16.8643 29.0118C16.7175 29.2201 16.6441 29.4805 16.6441 29.793V30.5459H15.7634V31.2561H16.6441V36.0004H17.4822V31.2561H18.7038Z" fill="#CFD1DE"/>
<path d="M19.8783 30.5459V36.0004H20.7164V30.5459H19.8783Z" fill="#CFD1DE"/>
<path d="M19.8819 29.4699C20.0002 29.5811 20.1411 29.6368 20.3044 29.6368C20.4678 29.6368 20.6075 29.5811 20.7235 29.4699C20.8418 29.3586 20.901 29.2248 20.901 29.0686C20.901 28.9123 20.8418 28.7786 20.7235 28.6673C20.6075 28.556 20.4678 28.5004 20.3044 28.5004C20.1411 28.5004 20.0002 28.556 19.8819 28.6673C19.7659 28.7786 19.7079 28.9123 19.7079 29.0686C19.7079 29.2248 19.7659 29.3586 19.8819 29.4699Z" fill="#CFD1DE"/>
<path d="M23.0894 36.0004V28.7277H22.2514V36.0004H23.0894Z" fill="#CFD1DE"/>
</svg>
