<svg width="6" height="12" viewBox="0 0 6 12" fill="none" xmlns="http://www.w3.org/2000/svg">
<path fill-rule="evenodd" clip-rule="evenodd" d="M2.362 1.28609C2.362 0.987858 2.60376 0.746094 2.90199 0.746094C3.20022 0.746094 3.44199 0.987857 3.44199 1.28609V1.84026C4.56912 2.07542 5.41798 3.10748 5.41798 4.34503C5.41798 4.79338 5.06731 5.15685 4.63474 5.15685C4.20218 5.15685 3.85151 4.79338 3.85151 4.34503C3.85151 3.83062 3.44918 3.41361 2.95289 3.41361C2.45659 3.41361 2.05426 3.83062 2.05426 4.34503C2.05426 4.85944 2.45659 5.27645 2.95289 5.27645C2.96283 5.27645 2.97274 5.27664 2.9826 5.27702C4.33052 5.29331 5.41836 6.43093 5.41836 7.8319C5.41836 9.0696 4.56931 10.1017 3.44198 10.3368L3.44197 10.9386C3.44197 11.2368 3.20021 11.4786 2.90198 11.4786C2.60375 11.4786 2.36199 11.2368 2.36199 10.9386L2.36199 10.313C1.28612 10.0385 0.488178 9.03176 0.488178 7.8319C0.488178 7.38354 0.838845 7.02008 1.27141 7.02008C1.70398 7.02008 2.05465 7.38354 2.05465 7.8319C2.05465 8.34631 2.45698 8.76332 2.95327 8.76332C3.44957 8.76332 3.85189 8.34631 3.85189 7.8319C3.85189 7.31749 3.44957 6.90048 2.95327 6.90048C2.94332 6.90048 2.93342 6.90029 2.92356 6.89991C1.57564 6.88362 0.487793 5.746 0.487793 4.34503C0.487793 3.14502 1.28593 2.13823 2.362 1.86384V1.28609Z" fill="#55B3FF"/>
</svg>
