<svg width="24" height="37" viewBox="0 0 24 37" fill="none" xmlns="http://www.w3.org/2000/svg">
<path fill-rule="evenodd" clip-rule="evenodd" d="M7.28967 6.17524C7.28967 2.82408 10.0063 0.107422 13.3575 0.107422C16.7087 0.107422 19.4253 2.82408 19.4253 6.17524C19.4253 9.5264 16.7087 12.2431 13.3575 12.2431C10.0063 12.2431 7.28967 9.5264 7.28967 6.17524ZM13.3575 2.13003C11.1234 2.13003 9.31228 3.94113 9.31228 6.17524C9.31228 8.40935 11.1234 10.2205 13.3575 10.2205C15.5916 10.2205 17.4027 8.40935 17.4027 6.17524C17.4027 3.94113 15.5916 2.13003 13.3575 2.13003Z" fill="#CFD1DE"/>
<path d="M13.3575 16.7939C10.9462 16.7939 8.66216 17.3322 7.10571 17.8142C6.22897 18.0858 5.58395 18.8802 5.42618 19.8945L5.25505 20.9946C5.1692 21.5465 4.65221 21.9243 4.10032 21.8384C3.54843 21.7526 3.17063 21.2356 3.25648 20.6837L3.42761 19.5836C3.68699 17.9161 4.79156 16.4136 6.50731 15.8822C8.17039 15.3671 10.6688 14.7713 13.3575 14.7713C16.0462 14.7713 18.5446 15.3671 20.2077 15.8822C21.9234 16.4136 23.028 17.9161 23.2874 19.5836L23.4585 20.6837C23.5444 21.2356 23.1666 21.7526 22.6147 21.8384C22.0628 21.9243 21.5458 21.5465 21.4599 20.9946L21.2888 19.8945C21.131 18.8802 20.486 18.0858 19.6093 17.8142C18.0528 17.3322 15.7687 16.7939 13.3575 16.7939Z" fill="#CFD1DE"/>
<path fill-rule="evenodd" clip-rule="evenodd" d="M0.977539 28.8234V36.0961H1.85822V33.4399H3.44913C4.01494 33.4399 4.47896 33.3369 4.84118 33.1309C5.20339 32.9226 5.47091 32.6432 5.64373 32.2929C5.81892 31.9425 5.90652 31.553 5.90652 31.1245C5.90652 30.696 5.81892 30.3078 5.64373 29.9598C5.46854 29.6117 5.19866 29.3359 4.83407 29.1323C4.47186 28.9264 4.00547 28.8234 3.43493 28.8234H0.977539ZM1.85822 32.6586H3.42072C3.81135 32.6586 4.12503 32.5911 4.36177 32.4562C4.59851 32.3213 4.77015 32.139 4.87669 31.9093C4.98559 31.6773 5.04004 31.4157 5.04004 31.1245C5.04004 30.8333 4.98559 30.5729 4.87669 30.3433C4.77015 30.1136 4.59733 29.9337 4.35822 29.8035C4.11911 29.6709 3.80188 29.6046 3.40652 29.6046H1.85822V32.6586Z" fill="#CFD1DE"/>
<path fill-rule="evenodd" clip-rule="evenodd" d="M8.07981 35.8617C8.46097 36.0938 8.91433 36.2098 9.4399 36.2098C9.80922 36.2098 10.1418 36.1529 10.4378 36.0393C10.7337 35.9233 10.9823 35.7623 11.1835 35.5563C11.3847 35.348 11.528 35.1065 11.6132 34.8319L10.8035 34.6046C10.7325 34.794 10.6319 34.9527 10.5017 35.0805C10.3715 35.206 10.2164 35.3007 10.0365 35.3646C9.85893 35.4261 9.66007 35.4569 9.4399 35.4569C9.10136 35.4569 8.80424 35.3835 8.54856 35.2367C8.29288 35.0876 8.09283 34.871 7.94842 34.5869C7.81962 34.3271 7.74922 34.0158 7.73721 33.6529H11.6984V33.2978C11.6984 32.7888 11.6309 32.3603 11.496 32.0123C11.3611 31.6643 11.18 31.3849 10.9527 31.1742C10.7254 30.9612 10.4733 30.8073 10.1963 30.7126C9.9193 30.6179 9.63876 30.5706 9.35467 30.5706C8.86225 30.5706 8.43137 30.6913 8.06206 30.9328C7.69511 31.1719 7.40865 31.5057 7.20268 31.9342C6.99908 32.3603 6.89728 32.8527 6.89728 33.4115C6.89728 33.9702 6.99908 34.4602 7.20268 34.8816C7.40865 35.3007 7.70102 35.6274 8.07981 35.8617ZM7.73935 32.9285C7.75531 32.6755 7.81908 32.4364 7.93066 32.2112C8.06087 31.9484 8.24672 31.7353 8.48819 31.572C8.73204 31.4063 9.02086 31.3234 9.35467 31.3234C9.6577 31.3234 9.92048 31.3932 10.143 31.5329C10.3679 31.6726 10.5407 31.8632 10.6615 32.1046C10.7846 32.3461 10.8461 32.6207 10.8461 32.9285H7.73935Z" fill="#CFD1DE"/>
<path d="M12.9733 30.6416V36.0961H13.8113V32.6444C13.8113 32.3982 13.8705 32.1792 13.9889 31.9875C14.1096 31.7933 14.273 31.6418 14.479 31.5329C14.6873 31.4216 14.924 31.366 15.1892 31.366C15.3005 31.366 15.4058 31.3743 15.5052 31.3909C15.607 31.4051 15.6721 31.4157 15.7006 31.4228V30.5706C15.6532 30.5658 15.5834 30.5623 15.491 30.5599C15.3987 30.5575 15.3218 30.5563 15.2602 30.5563C14.9335 30.5563 14.6399 30.6404 14.3795 30.8085C14.1191 30.9766 13.9392 31.1956 13.8398 31.4654H13.7829V30.6416H12.9733Z" fill="#CFD1DE"/>
<path d="M19.4648 31.3518V30.6416H18.2432V30.0876C18.2432 29.8177 18.3035 29.6129 18.4243 29.4732C18.5474 29.3336 18.7474 29.2637 19.0244 29.2637C19.1452 29.2637 19.2422 29.2744 19.3156 29.2957C19.3914 29.317 19.4506 29.3348 19.4932 29.349L19.7346 28.6245C19.6707 28.5961 19.5737 28.5653 19.4434 28.5322C19.3132 28.4991 19.1452 28.4825 18.9392 28.4825C18.6788 28.4825 18.4314 28.5346 18.197 28.6387C17.9626 28.7429 17.772 28.8991 17.6253 29.1075C17.4785 29.3158 17.4051 29.5762 17.4051 29.8887V30.6416H16.5244V31.3518H17.4051V36.0961H18.2432V31.3518H19.4648Z" fill="#CFD1DE"/>
<path d="M20.6393 30.6416V36.0961H21.4774V30.6416H20.6393Z" fill="#CFD1DE"/>
<path d="M20.6428 29.5656C20.7612 29.6768 20.9021 29.7325 21.0654 29.7325C21.2288 29.7325 21.3685 29.6768 21.4845 29.5656C21.6028 29.4543 21.662 29.3206 21.662 29.1643C21.662 29.0081 21.6028 28.8743 21.4845 28.763C21.3685 28.6518 21.2288 28.5961 21.0654 28.5961C20.9021 28.5961 20.7612 28.6518 20.6428 28.763C20.5268 28.8743 20.4688 29.0081 20.4688 29.1643C20.4688 29.3206 20.5268 29.4543 20.6428 29.5656Z" fill="#CFD1DE"/>
<path d="M23.8504 36.0961V28.8234H23.0123V36.0961H23.8504Z" fill="#CFD1DE"/>
</svg>
