<svg width="25" height="24" viewBox="0 0 25 24" fill="none" xmlns="http://www.w3.org/2000/svg">
<path d="M18.7764 23.5076C18.5436 23.5069 18.3115 23.482 18.0841 23.4331C13.7549 22.5576 9.76665 20.5049 6.57823 17.5111C3.45785 14.5108 1.2937 10.6907 0.347623 6.51314C0.236068 5.99248 0.263448 5.45252 0.427128 4.9452C0.590809 4.43789 0.885281 3.98029 1.28221 3.61643L4.05137 1.01076C4.19281 0.87999 4.36087 0.779852 4.54457 0.716877C4.72828 0.653903 4.9235 0.629508 5.1175 0.645284C5.31865 0.6658 5.51277 0.729148 5.68619 0.830875C5.85962 0.932602 6.00814 1.07024 6.12132 1.2341L9.58277 6.23565C9.71257 6.42972 9.77523 6.65939 9.76153 6.89088C9.74782 7.12237 9.65846 7.34344 9.50662 7.52157L7.76897 9.55197C8.46102 11.0494 9.44109 12.4027 10.6558 13.5383C11.8627 14.7151 13.2892 15.6548 14.858 16.3064L17.011 14.6347C17.1919 14.495 17.4119 14.4124 17.6419 14.3979C17.8719 14.3834 18.101 14.4377 18.2987 14.5535L23.5255 17.8563C23.7048 17.961 23.8577 18.104 23.9725 18.2746C24.0873 18.4453 24.1611 18.6391 24.1884 18.8416C24.2157 19.0441 24.1958 19.25 24.1301 19.4438C24.0645 19.6377 23.9548 19.8146 23.8093 19.9611L21.1094 22.5736C20.8027 22.8719 20.4387 23.1081 20.0383 23.2684C19.6379 23.4286 19.209 23.5099 18.7764 23.5076ZM5.00673 1.98535L2.23757 4.59103C2.01428 4.79444 1.84898 5.05117 1.75795 5.33597C1.66691 5.62077 1.65326 5.92383 1.71836 6.21534C2.59806 10.1355 4.62024 13.7226 7.54051 16.5433C10.541 19.3598 14.2942 21.2906 18.3679 22.1134C18.6763 22.1764 18.9958 22.1636 19.2979 22.0762C19.5999 21.9888 19.8751 21.8295 20.0986 21.6125L22.7986 19.0001L17.7518 15.8124L15.4395 17.6126C15.351 17.6811 15.2467 17.7274 15.1357 17.7475C15.0247 17.7675 14.9103 17.7607 14.8026 17.7277C12.8827 17.0361 11.1428 15.9384 9.70738 14.5129C8.22266 13.1574 7.07019 11.4917 6.33593 9.63995C6.30487 9.52785 6.30383 9.40982 6.33293 9.29721C6.36203 9.18461 6.42028 9.08122 6.50208 8.99699L8.37126 6.81093L5.00673 1.98535Z" fill="#389BEC"/>
</svg>
