<svg width="49" height="48" viewBox="0 0 49 48" fill="none" xmlns="http://www.w3.org/2000/svg">
<path d="M45.6313 7.07025H43.6631V5.07585C43.6615 3.75397 43.1232 2.48667 42.1663 1.55196C41.2094 0.617245 39.9121 0.0914272 38.5589 0.0898438H10.4411C9.08787 0.0914272 7.79055 0.617245 6.83368 1.55196C5.87682 2.48667 5.33854 3.75397 5.33692 5.07585V7.07025H3.36875C2.51664 7.03336 1.68419 7.32722 1.05306 7.88769C0.421933 8.44816 0.0433743 9.22974 0 10.0619V16.0451C0 16.3095 0.107552 16.5632 0.298995 16.7502C0.490439 16.9372 0.750091 17.0423 1.02083 17.0423C1.29158 17.0423 1.55123 16.9372 1.74267 16.7502C1.93411 16.5632 2.04167 16.3095 2.04167 16.0451V10.0619C2.09203 9.76217 2.25716 9.49239 2.50359 9.30722C2.75002 9.12205 3.0593 9.03533 3.36875 9.06466H5.33692V40.9751C5.33903 41.728 5.63233 42.4522 6.15805 43.0028C6.68377 43.5533 7.40306 43.8894 8.17177 43.9438C8.16958 43.9513 8.16788 43.959 8.16667 43.9667V44.9639C8.16667 45.7573 8.48932 46.5182 9.06365 47.0793C9.63798 47.6403 10.4169 47.9555 11.2292 47.9555H15.3125C16.1247 47.9555 16.9037 47.6403 17.478 47.0793C18.0523 46.5182 18.375 45.7573 18.375 44.9639V43.9667H30.625V44.9639C30.625 45.7573 30.9477 46.5182 31.522 47.0793C32.0963 47.6403 32.8753 47.9555 33.6875 47.9555H37.7708C38.5831 47.9555 39.362 47.6403 39.9363 47.0793C40.5107 46.5182 40.8333 45.7573 40.8333 44.9639V43.9667C40.8338 43.9591 40.8338 43.9514 40.8333 43.9438C41.6011 43.8882 42.3192 43.5516 42.8438 43.0012C43.3685 42.4508 43.6611 41.7272 43.6631 40.9751V9.06466H45.6313C45.9407 9.03533 46.25 9.12205 46.4964 9.30722C46.7428 9.49239 46.908 9.76217 46.9583 10.0619V16.0451C46.9583 16.3095 47.0659 16.5632 47.2573 16.7502C47.4488 16.9372 47.7084 17.0423 47.9792 17.0423C48.2499 17.0423 48.5096 16.9372 48.701 16.7502C48.8925 16.5632 49 16.3095 49 16.0451V10.0619C48.9566 9.22974 48.5781 8.44816 47.9469 7.88769C47.3158 7.32722 46.4834 7.03336 45.6313 7.07025ZM35.525 36.9863H13.4801C13.0751 35.6661 12.28 34.4922 11.1945 33.6119C10.109 32.7316 8.78148 32.1841 7.37858 32.0382V30.0059H41.6214V32.0382C40.2194 32.185 38.893 32.7329 37.8085 33.6132C36.724 34.4934 35.9296 35.6668 35.525 36.9863ZM7.37858 6.07305H41.6214V28.0115H7.37858V6.07305ZM10.4411 2.08425H38.5589C39.1901 2.0868 39.805 2.27978 40.3195 2.63678C40.8341 2.99378 41.2232 3.49737 41.4336 4.07865H7.56642C7.77679 3.49737 8.16588 2.99378 8.68045 2.63678C9.19502 2.27978 9.80994 2.0868 10.4411 2.08425ZM7.37858 40.9751V34.0475C8.5899 34.2231 9.69642 34.8177 10.4968 35.7231C11.2972 36.6285 11.7382 37.7845 11.7396 38.9807V41.9723H8.39942C8.12868 41.9723 7.86902 41.8672 7.67758 41.6802C7.48614 41.4932 7.37858 41.2396 7.37858 40.9751ZM16.3333 44.9639C16.3333 45.2284 16.2258 45.482 16.0343 45.669C15.8429 45.856 15.5832 45.9611 15.3125 45.9611H11.2292C10.9584 45.9611 10.6988 45.856 10.5073 45.669C10.3159 45.482 10.2083 45.2284 10.2083 44.9639V43.9667H16.3333V44.9639ZM13.7813 41.9723V38.9807H35.2188V41.9723H13.7813ZM38.7917 44.9639C38.7917 45.2284 38.6841 45.482 38.4927 45.669C38.3012 45.856 38.0416 45.9611 37.7708 45.9611H33.6875C33.4168 45.9611 33.1571 45.856 32.9657 45.669C32.7742 45.482 32.6667 45.2284 32.6667 44.9639V43.9667H38.7917V44.9639ZM41.6214 40.9751C41.6214 41.2396 41.5139 41.4932 41.3224 41.6802C41.131 41.8672 40.8713 41.9723 40.6006 41.9723H37.2604V38.9807C37.2618 37.7845 37.7028 36.6285 38.5032 35.7231C39.3036 34.8177 40.4101 34.2231 41.6214 34.0475V40.9751Z" fill="#55B3FF"/>
</svg>
