<svg width="21" height="21" viewBox="0 0 21 21" fill="none" xmlns="http://www.w3.org/2000/svg">
<path d="M11.0665 0.03125C4.082 0.03125 -0.676584 7.10827 1.95864 13.5766L3.08522 16.3418C3.18603 16.5892 3.11233 16.8735 2.90401 17.0408L0.521792 18.9539C0.321899 19.1145 0.245089 19.3837 0.330179 19.6255C0.415267 19.8674 0.643725 20.0292 0.900099 20.0292H10.3496C16.1771 20.0292 20.9012 15.3051 20.9012 9.47757C20.9012 4.26051 16.6719 0.03125 11.4549 0.03125H11.0665Z" fill="#CFD1DE"/>
<path d="M11.1047 6.35643C10.9557 6.09963 10.5849 6.09963 10.4358 6.35643L9.38641 8.16499C9.3128 8.29185 9.18557 8.37842 9.04054 8.40033L7.07384 8.69737C6.74351 8.74726 6.62765 9.16433 6.8849 9.37746L8.35001 10.5913C8.48563 10.7036 8.5494 10.8809 8.51646 11.0539L8.1332 13.0665C8.07262 13.3847 8.40662 13.6319 8.6932 13.481L10.5451 12.5059C10.6861 12.4317 10.8545 12.4317 10.9955 12.5059L12.8474 13.481C13.134 13.6319 13.468 13.3847 13.4074 13.0665L13.0241 11.0539C12.9912 10.8809 13.0549 10.7036 13.1906 10.5913L14.6557 9.37746C14.9129 9.16433 14.7971 8.74726 14.4667 8.69737L12.5 8.40033C12.355 8.37842 12.2278 8.29185 12.1542 8.16499L11.1047 6.35643Z" fill="white"/>
</svg>
