<svg width="18" height="13" viewBox="0 0 18 13" fill="none" xmlns="http://www.w3.org/2000/svg">
<path fill-rule="evenodd" clip-rule="evenodd" d="M8.53953 2.84599C11.0061 2.8461 13.3783 3.81668 15.1659 5.55712C15.3005 5.69149 15.5157 5.68979 15.6483 5.55332L16.9351 4.2234C17.0022 4.15418 17.0396 4.06042 17.0391 3.96287C17.0385 3.86531 17 3.77201 16.9321 3.7036C12.2402 -0.901199 4.83814 -0.901199 0.146225 3.7036C0.0782598 3.77196 0.039697 3.86523 0.0390703 3.96279C0.0384435 4.06034 0.0758046 4.15413 0.142886 4.2234L1.43002 5.55332C1.56252 5.69 1.77785 5.6917 1.91238 5.55712C3.70022 3.81656 6.07273 2.84598 8.53953 2.84599ZM8.53951 7.17266C9.89473 7.17257 11.2016 7.68843 12.2061 8.61999C12.342 8.7522 12.556 8.74933 12.6885 8.61353L13.9738 7.28361C14.0415 7.21386 14.079 7.11922 14.078 7.02089C14.0771 6.92255 14.0376 6.82872 13.9686 6.76039C10.9095 3.84629 6.17213 3.84629 3.11305 6.76039C3.04395 6.82872 3.00452 6.9226 3.00362 7.02097C3.00271 7.11933 3.0404 7.21396 3.10823 7.28361L4.39314 8.61353C4.52559 8.74933 4.73962 8.7522 4.87549 8.61999C5.87938 7.68905 7.1852 7.17323 8.53951 7.17266ZM11.1142 10.084C11.1161 10.1826 11.0783 10.2777 11.0095 10.3468L8.78625 12.6445C8.72108 12.712 8.63222 12.75 8.53951 12.75C8.4468 12.75 8.35794 12.712 8.29277 12.6445L6.06912 10.3468C6.00043 10.2776 5.96264 10.1825 5.96468 10.0839C5.96671 9.98529 6.0084 9.89191 6.07988 9.82581C7.49975 8.59595 9.57927 8.59595 10.9991 9.82581C11.0706 9.89196 11.1122 9.98537 11.1142 10.084Z" fill="black"/>
</svg>
