<svg width="18" height="13" viewBox="0 0 18 13" fill="none" xmlns="http://www.w3.org/2000/svg">
<path fill-rule="evenodd" clip-rule="evenodd" d="M8.82859 2.78544C11.2951 2.78555 13.6674 3.75613 15.455 5.49657C15.5896 5.63094 15.8048 5.62925 15.9374 5.49277L17.2241 4.16286C17.2913 4.09364 17.3287 3.99988 17.3281 3.90232C17.3276 3.80477 17.2891 3.71146 17.2212 3.64305C12.5292 -0.961746 5.1272 -0.961746 0.435288 3.64305C0.367322 3.71141 0.328759 3.80469 0.328133 3.90224C0.327506 3.9998 0.364867 4.09359 0.431949 4.16286L1.71909 5.49277C1.85158 5.62945 2.06691 5.63115 2.20144 5.49657C3.98928 3.75602 6.36179 2.78544 8.82859 2.78544ZM8.82858 7.11211C10.1838 7.11203 11.4906 7.62788 12.4952 8.55944C12.6311 8.69165 12.8451 8.68879 12.9775 8.55298L14.2628 7.22307C14.3305 7.15331 14.3681 7.05868 14.3671 6.96034C14.3661 6.862 14.3267 6.76817 14.2576 6.69984C11.1986 3.78575 6.46119 3.78575 3.40211 6.69984C3.33301 6.76817 3.29359 6.86205 3.29268 6.96042C3.29177 7.05879 3.32946 7.15341 3.39729 7.22307L4.6822 8.55298C4.81465 8.68879 5.02868 8.69165 5.16455 8.55944C6.16845 7.6285 7.47426 7.11269 8.82858 7.11211ZM11.4032 10.0234C11.4052 10.122 11.3673 10.2171 11.2986 10.2862L9.07531 12.5839C9.01014 12.6514 8.92128 12.6895 8.82857 12.6895C8.73586 12.6895 8.647 12.6514 8.58183 12.5839L6.35818 10.2862C6.28949 10.2171 6.2517 10.122 6.25374 10.0234C6.25578 9.92474 6.29746 9.83136 6.36894 9.76526C7.78881 8.53541 9.86833 8.53541 11.2882 9.76526C11.3596 9.83141 11.4012 9.92482 11.4032 10.0234Z" fill="white"/>
</svg>
