<svg width="18" height="14" viewBox="0 0 18 14" fill="none" xmlns="http://www.w3.org/2000/svg">
<path fill-rule="evenodd" clip-rule="evenodd" d="M9.47117 3.43193C11.9377 3.43204 14.31 4.40262 16.0976 6.14306C16.2322 6.27743 16.4474 6.27573 16.5799 6.13926L17.8667 4.80934C17.9338 4.74012 17.9713 4.64636 17.9707 4.54881C17.9701 4.45125 17.9316 4.35794 17.8637 4.28953C13.1718 -0.315261 5.76978 -0.315261 1.07787 4.28953C1.0099 4.35789 0.971338 4.45117 0.970711 4.54873C0.970084 4.64628 1.00745 4.74007 1.07453 4.80934L2.36167 6.13926C2.49416 6.27594 2.70949 6.27763 2.84402 6.14306C4.63186 4.4025 7.00437 3.43192 9.47117 3.43193ZM9.47115 7.7586C10.8264 7.75851 12.1332 8.27437 13.1378 9.20593C13.2736 9.33814 13.4877 9.33527 13.6201 9.19947L14.9054 7.86955C14.9731 7.79979 15.0107 7.70516 15.0097 7.60682C15.0087 7.50849 14.9693 7.41466 14.9002 7.34632C11.8411 4.43223 7.10377 4.43223 4.04469 7.34632C3.97559 7.41466 3.93616 7.50854 3.93526 7.6069C3.93435 7.70527 3.97204 7.79989 4.03987 7.86955L5.32478 9.19947C5.45723 9.33527 5.67126 9.33814 5.80713 9.20593C6.81102 8.27498 8.11684 7.75917 9.47115 7.7586ZM12.0458 10.6699C12.0478 10.7685 12.0099 10.8636 11.9412 10.9327L9.71789 13.2304C9.65272 13.2979 9.56386 13.3359 9.47115 13.3359C9.37844 13.3359 9.28958 13.2979 9.22441 13.2304L7.00076 10.9327C6.93207 10.8636 6.89428 10.7684 6.89632 10.6698C6.89836 10.5712 6.94004 10.4778 7.01152 10.4117C8.43139 9.18189 10.5109 9.18189 11.9308 10.4117C12.0022 10.4779 12.0438 10.5713 12.0458 10.6699Z" fill="black"/>
</svg>
